solid CATIA STL
  facet normal  0.000000e+000 -1.000000e+000  0.000000e+000
    outer loop
      vertex  0.000000e+000  0.000000e+000  1.000000e+000
      vertex  0.000000e+000  0.000000e+000  0.000000e+000
      vertex  5.000000e+001  0.000000e+000  1.000000e+000
    endloop
  endfacet
  facet normal  0.000000e+000 -1.000000e+000  -0.000000e+000
    outer loop
      vertex  5.000000e+001  0.000000e+000  1.000000e+000
      vertex  0.000000e+000  0.000000e+000  0.000000e+000
      vertex  5.000000e+001  0.000000e+000  0.000000e+000
    endloop
  endfacet
  facet normal  1.000000e+000  0.000000e+000  0.000000e+000
    outer loop
      vertex  5.000000e+001  0.000000e+000  1.000000e+000
      vertex  5.000000e+001  0.000000e+000  0.000000e+000
      vertex  5.000000e+001  5.000000e+001  1.000000e+000
    endloop
  endfacet
  facet normal  1.000000e+000  0.000000e+000  0.000000e+000
    outer loop
      vertex  5.000000e+001  5.000000e+001  1.000000e+000
      vertex  5.000000e+001  0.000000e+000  0.000000e+000
      vertex  5.000000e+001  5.000000e+001  0.000000e+000
    endloop
  endfacet
  facet normal  0.000000e+000  1.000000e+000  -0.000000e+000
    outer loop
      vertex  5.000000e+001  5.000000e+001  1.000000e+000
      vertex  5.000000e+001  5.000000e+001  0.000000e+000
      vertex  0.000000e+000  5.000000e+001  1.000000e+000
    endloop
  endfacet
  facet normal  0.000000e+000  1.000000e+000  0.000000e+000
    outer loop
      vertex  0.000000e+000  5.000000e+001  1.000000e+000
      vertex  5.000000e+001  5.000000e+001  0.000000e+000
      vertex  0.000000e+000  5.000000e+001  0.000000e+000
    endloop
  endfacet
  facet normal -1.000000e+000  0.000000e+000  0.000000e+000
    outer loop
      vertex  0.000000e+000  5.000000e+001  1.000000e+000
      vertex  0.000000e+000  5.000000e+001  0.000000e+000
      vertex  0.000000e+000  0.000000e+000  1.000000e+000
    endloop
  endfacet
  facet normal -1.000000e+000  0.000000e+000  0.000000e+000
    outer loop
      vertex  0.000000e+000  0.000000e+000  1.000000e+000
      vertex  0.000000e+000  5.000000e+001  0.000000e+000
      vertex  0.000000e+000  0.000000e+000  0.000000e+000
    endloop
  endfacet
  facet normal  0.000000e+000  0.000000e+000  1.000000e+000
    outer loop
      vertex  2.715795e+001  4.035760e+001  2.000000e+000
      vertex  1.000000e+000  4.900000e+001  2.000000e+000
      vertex  1.215936e+001  2.252909e+001  2.000000e+000
    endloop
  endfacet
  facet normal  -0.000000e+000  0.000000e+000  1.000000e+000
    outer loop
      vertex  4.900000e+001  4.900000e+001  2.000000e+000
      vertex  1.000000e+000  4.900000e+001  2.000000e+000
      vertex  2.715795e+001  4.035760e+001  2.000000e+000
    endloop
  endfacet
  facet normal  0.000000e+000  0.000000e+000  9.999999e-001
    outer loop
      vertex  4.900000e+001  4.900000e+001  2.000000e+000
      vertex  2.715795e+001  4.035760e+001  2.000000e+000
      vertex  3.433382e+001  4.035760e+001  2.000000e+000
    endloop
  endfacet
  facet normal  -0.000000e+000  0.000000e+000  1.000000e+000
    outer loop
      vertex  4.900000e+001  4.900000e+001  2.000000e+000
      vertex  3.433382e+001  4.035760e+001  2.000000e+000
      vertex  3.433382e+001  2.214502e+001  2.000000e+000
    endloop
  endfacet
  facet normal  0.000000e+000  0.000000e+000  1.000000e+000
    outer loop
      vertex  4.900000e+001  4.900000e+001  2.000000e+000
      vertex  3.433382e+001  2.214502e+001  2.000000e+000
      vertex  3.805315e+001  2.214502e+001  2.000000e+000
    endloop
  endfacet
  facet normal  -0.000000e+000  0.000000e+000  1.000000e+000
    outer loop
      vertex  4.900000e+001  4.900000e+001  2.000000e+000
      vertex  3.805315e+001  2.214502e+001  2.000000e+000
      vertex  3.805315e+001  1.575748e+001  2.000000e+000
    endloop
  endfacet
  facet normal  -0.000000e+000  0.000000e+000  1.000000e+000
    outer loop
      vertex  4.900000e+001  4.900000e+001  2.000000e+000
      vertex  3.805315e+001  1.575748e+001  2.000000e+000
      vertex  4.900000e+001  1.000000e+000  2.000000e+000
    endloop
  endfacet
  facet normal  0.000000e+000  0.000000e+000  9.999999e-001
    outer loop
      vertex  1.000000e+000  1.000000e+000  2.000000e+000
      vertex  4.900000e+001  1.000000e+000  2.000000e+000
      vertex  3.433382e+001  1.021892e+001  2.000000e+000
    endloop
  endfacet
  facet normal  0.000000e+000  0.000000e+000  1.000000e+000
    outer loop
      vertex  1.000000e+000  1.000000e+000  2.000000e+000
      vertex  3.433382e+001  1.021892e+001  2.000000e+000
      vertex  2.715795e+001  1.021892e+001  2.000000e+000
    endloop
  endfacet
  facet normal  0.000000e+000  -0.000000e+000  1.000000e+000
    outer loop
      vertex  1.000000e+000  1.000000e+000  2.000000e+000
      vertex  2.715795e+001  1.021892e+001  2.000000e+000
      vertex  2.715795e+001  1.575748e+001  2.000000e+000
    endloop
  endfacet
  facet normal  0.000000e+000  0.000000e+000  9.999999e-001
    outer loop
      vertex  1.000000e+000  1.000000e+000  2.000000e+000
      vertex  2.715795e+001  1.575748e+001  2.000000e+000
      vertex  1.215936e+001  1.575748e+001  2.000000e+000
    endloop
  endfacet
  facet normal  0.000000e+000  -0.000000e+000  1.000000e+000
    outer loop
      vertex  1.000000e+000  1.000000e+000  2.000000e+000
      vertex  1.215936e+001  1.575748e+001  2.000000e+000
      vertex  1.215936e+001  2.252909e+001  2.000000e+000
    endloop
  endfacet
  facet normal  0.000000e+000  0.000000e+000  1.000000e+000
    outer loop
      vertex  1.000000e+000  1.000000e+000  2.000000e+000
      vertex  1.215936e+001  2.252909e+001  2.000000e+000
      vertex  1.000000e+000  4.900000e+001  2.000000e+000
    endloop
  endfacet
  facet normal  0.000000e+000  0.000000e+000  1.000000e+000
    outer loop
      vertex  3.433382e+001  1.021892e+001  2.000000e+000
      vertex  4.900000e+001  1.000000e+000  2.000000e+000
      vertex  3.433382e+001  1.575748e+001  2.000000e+000
    endloop
  endfacet
  facet normal  -0.000000e+000  0.000000e+000  9.999999e-001
    outer loop
      vertex  3.433382e+001  1.575748e+001  2.000000e+000
      vertex  4.900000e+001  1.000000e+000  2.000000e+000
      vertex  3.805315e+001  1.575748e+001  2.000000e+000
    endloop
  endfacet
  facet normal  9.933901e-001  0.000000e+000  1.147884e-001
    outer loop
      vertex  5.000000e+001  0.000000e+000  1.000000e+000
      vertex  5.000000e+001  5.000000e+001  1.000000e+000
      vertex  4.997365e+001  2.635201e-002  1.228052e+000
    endloop
  endfacet
  facet normal  9.933900e-001  -0.000000e+000  1.147883e-001
    outer loop
      vertex  4.997365e+001  2.635201e-002  1.228052e+000
      vertex  5.000000e+001  5.000000e+001  1.000000e+000
      vertex  4.997365e+001  4.997365e+001  1.228052e+000
    endloop
  endfacet
  facet normal  9.427458e-001  0.000000e+000  3.335120e-001
    outer loop
      vertex  4.997365e+001  2.635201e-002  1.228052e+000
      vertex  4.997365e+001  4.997365e+001  1.228052e+000
      vertex  4.990046e+001  9.954410e-002  1.434947e+000
    endloop
  endfacet
  facet normal  9.427459e-001  -0.000000e+000  3.335121e-001
    outer loop
      vertex  4.990046e+001  9.954410e-002  1.434947e+000
      vertex  4.997365e+001  4.997365e+001  1.228052e+000
      vertex  4.990046e+001  4.990046e+001  1.434947e+000
    endloop
  endfacet
  facet normal  8.687318e-001  0.000000e+000  4.952829e-001
    outer loop
      vertex  4.990046e+001  9.954410e-002  1.434947e+000
      vertex  4.990046e+001  4.990046e+001  1.434947e+000
      vertex  4.983297e+001  1.670315e-001  1.553318e+000
    endloop
  endfacet
  facet normal  8.687319e-001  -0.000000e+000  4.952828e-001
    outer loop
      vertex  4.983297e+001  1.670315e-001  1.553318e+000
      vertex  4.990046e+001  4.990046e+001  1.434947e+000
      vertex  4.983297e+001  4.983297e+001  1.553318e+000
    endloop
  endfacet
  facet normal  7.950740e-001  0.000000e+000  6.065124e-001
    outer loop
      vertex  4.983297e+001  1.670315e-001  1.553318e+000
      vertex  4.983297e+001  4.983297e+001  1.553318e+000
      vertex  4.975379e+001  2.462120e-001  1.657112e+000
    endloop
  endfacet
  facet normal  7.950740e-001  -0.000000e+000  6.065124e-001
    outer loop
      vertex  4.975379e+001  2.462120e-001  1.657112e+000
      vertex  4.983297e+001  4.983297e+001  1.553318e+000
      vertex  4.975379e+001  4.975379e+001  1.657112e+000
    endloop
  endfacet
  facet normal  6.673086e-001  0.000000e+000  7.447813e-001
    outer loop
      vertex  4.975379e+001  2.462120e-001  1.657112e+000
      vertex  4.975379e+001  4.975379e+001  1.657112e+000
      vertex  4.957071e+001  4.292929e-001  1.821154e+000
    endloop
  endfacet
  facet normal  6.673086e-001  -0.000000e+000  7.447813e-001
    outer loop
      vertex  4.957071e+001  4.292929e-001  1.821154e+000
      vertex  4.975379e+001  4.975379e+001  1.657112e+000
      vertex  4.957071e+001  4.957071e+001  1.821154e+000
    endloop
  endfacet
  facet normal  4.725453e-001  0.000000e+000  8.813063e-001
    outer loop
      vertex  4.957071e+001  4.292929e-001  1.821154e+000
      vertex  4.957071e+001  4.957071e+001  1.821154e+000
      vertex  4.936811e+001  6.318858e-001  1.929783e+000
    endloop
  endfacet
  facet normal  4.725453e-001  -0.000000e+000  8.813064e-001
    outer loop
      vertex  4.936811e+001  6.318858e-001  1.929783e+000
      vertex  4.957071e+001  4.957071e+001  1.821154e+000
      vertex  4.936811e+001  4.936811e+001  1.929783e+000
    endloop
  endfacet
  facet normal  2.640219e-001  0.000000e+000  9.645167e-001
    outer loop
      vertex  4.936811e+001  6.318858e-001  1.929783e+000
      vertex  4.936811e+001  4.936811e+001  1.929783e+000
      vertex  4.915676e+001  8.432434e-001  1.987637e+000
    endloop
  endfacet
  facet normal  2.640219e-001  -0.000000e+000  9.645167e-001
    outer loop
      vertex  4.915676e+001  8.432434e-001  1.987637e+000
      vertex  4.936811e+001  4.936811e+001  1.929783e+000
      vertex  4.915676e+001  4.915676e+001  1.987637e+000
    endloop
  endfacet
  facet normal  7.862119e-002  0.000000e+000  9.969045e-001
    outer loop
      vertex  4.915676e+001  8.432434e-001  1.987637e+000
      vertex  4.915676e+001  4.915676e+001  1.987637e+000
      vertex  4.900000e+001  1.000000e+000  2.000000e+000
    endloop
  endfacet
  facet normal  7.862120e-002  -0.000000e+000  9.969046e-001
    outer loop
      vertex  4.900000e+001  1.000000e+000  2.000000e+000
      vertex  4.915676e+001  4.915676e+001  1.987637e+000
      vertex  4.900000e+001  4.900000e+001  2.000000e+000
    endloop
  endfacet
  facet normal  0.000000e+000 -9.933904e-001  1.147848e-001
    outer loop
      vertex  0.000000e+000  0.000000e+000  1.000000e+000
      vertex  5.000000e+001  0.000000e+000  1.000000e+000
      vertex  2.635201e-002  2.635110e-002  1.228052e+000
    endloop
  endfacet
  facet normal  1.811535e-008 -9.933900e-001  1.147887e-001
    outer loop
      vertex  2.635201e-002  2.635110e-002  1.228052e+000
      vertex  5.000000e+001  0.000000e+000  1.000000e+000
      vertex  4.997365e+001  2.635201e-002  1.228052e+000
    endloop
  endfacet
  facet normal  1.719180e-008 -9.427453e-001  3.335137e-001
    outer loop
      vertex  2.635201e-002  2.635110e-002  1.228052e+000
      vertex  4.997365e+001  2.635201e-002  1.228052e+000
      vertex  9.954410e-002  9.954410e-002  1.434947e+000
    endloop
  endfacet
  facet normal  0.000000e+000 -9.427466e-001  3.335100e-001
    outer loop
      vertex  9.954410e-002  9.954410e-002  1.434947e+000
      vertex  4.997365e+001  2.635201e-002  1.228052e+000
      vertex  4.990046e+001  9.954410e-002  1.434947e+000
    endloop
  endfacet
  facet normal  0.000000e+000 -8.687313e-001  4.952837e-001
    outer loop
      vertex  9.954410e-002  9.954410e-002  1.434947e+000
      vertex  4.990046e+001  9.954410e-002  1.434947e+000
      vertex  1.670315e-001  1.670301e-001  1.553318e+000
    endloop
  endfacet
  facet normal  2.580357e-008 -8.687266e-001  4.952919e-001
    outer loop
      vertex  1.670315e-001  1.670301e-001  1.553318e+000
      vertex  4.990046e+001  9.954410e-002  1.434947e+000
      vertex  4.983297e+001  1.670315e-001  1.553318e+000
    endloop
  endfacet
  facet normal  2.361597e-008 -7.950768e-001  6.065087e-001
    outer loop
      vertex  1.670315e-001  1.670301e-001  1.553318e+000
      vertex  4.983297e+001  1.670315e-001  1.553318e+000
      vertex  2.462120e-001  2.462072e-001  1.657112e+000
    endloop
  endfacet
  facet normal  7.681673e-008 -7.950645e-001  6.065248e-001
    outer loop
      vertex  2.462120e-001  2.462072e-001  1.657112e+000
      vertex  4.983297e+001  1.670315e-001  1.553318e+000
      vertex  4.975379e+001  2.462120e-001  1.657112e+000
    endloop
  endfacet
  facet normal  6.447348e-008 -6.673100e-001  7.447801e-001
    outer loop
      vertex  2.462120e-001  2.462072e-001  1.657112e+000
      vertex  4.975379e+001  2.462120e-001  1.657112e+000
      vertex  4.292929e-001  4.292929e-001  1.821154e+000
    endloop
  endfacet
  facet normal  0.000000e+000 -6.673196e-001  7.447714e-001
    outer loop
      vertex  4.292929e-001  4.292929e-001  1.821154e+000
      vertex  4.975379e+001  2.462120e-001  1.657112e+000
      vertex  4.957071e+001  4.292929e-001  1.821154e+000
    endloop
  endfacet
  facet normal  0.000000e+000 -4.725402e-001  8.813091e-001
    outer loop
      vertex  4.292929e-001  4.292929e-001  1.821154e+000
      vertex  4.957071e+001  4.292929e-001  1.821154e+000
      vertex  6.318858e-001  6.318905e-001  1.929783e+000
    endloop
  endfacet
  facet normal -4.565643e-008 -4.725488e-001  8.813046e-001
    outer loop
      vertex  6.318858e-001  6.318905e-001  1.929783e+000
      vertex  4.957071e+001  4.292929e-001  1.821154e+000
      vertex  4.936811e+001  6.318858e-001  1.929783e+000
    endloop
  endfacet
  facet normal -2.550915e-008 -2.640223e-001  9.645166e-001
    outer loop
      vertex  6.318858e-001  6.318905e-001  1.929783e+000
      vertex  4.936811e+001  6.318858e-001  1.929783e+000
      vertex  8.432434e-001  8.432434e-001  1.987637e+000
    endloop
  endfacet
  facet normal  0.000000e+000 -2.640169e-001  9.645180e-001
    outer loop
      vertex  8.432434e-001  8.432434e-001  1.987637e+000
      vertex  4.936811e+001  6.318858e-001  1.929783e+000
      vertex  4.915676e+001  8.432434e-001  1.987637e+000
    endloop
  endfacet
  facet normal  0.000000e+000 -7.862159e-002  9.969046e-001
    outer loop
      vertex  8.432434e-001  8.432434e-001  1.987637e+000
      vertex  4.915676e+001  8.432434e-001  1.987637e+000
      vertex  1.000000e+000  1.000000e+000  2.000000e+000
    endloop
  endfacet
  facet normal  0.000000e+000 -7.862158e-002  9.969045e-001
    outer loop
      vertex  1.000000e+000  1.000000e+000  2.000000e+000
      vertex  4.915676e+001  8.432434e-001  1.987637e+000
      vertex  4.900000e+001  1.000000e+000  2.000000e+000
    endloop
  endfacet
  facet normal -7.862158e-002  0.000000e+000  9.969045e-001
    outer loop
      vertex  1.000000e+000  1.000000e+000  2.000000e+000
      vertex  1.000000e+000  4.900000e+001  2.000000e+000
      vertex  8.432434e-001  8.432434e-001  1.987637e+000
    endloop
  endfacet
  facet normal -7.862159e-002  0.000000e+000  9.969046e-001
    outer loop
      vertex  8.432434e-001  8.432434e-001  1.987637e+000
      vertex  1.000000e+000  4.900000e+001  2.000000e+000
      vertex  8.432434e-001  4.915676e+001  1.987637e+000
    endloop
  endfacet
  facet normal -2.640169e-001  0.000000e+000  9.645180e-001
    outer loop
      vertex  8.432434e-001  8.432434e-001  1.987637e+000
      vertex  8.432434e-001  4.915676e+001  1.987637e+000
      vertex  6.318858e-001  6.318905e-001  1.929783e+000
    endloop
  endfacet
  facet normal -2.640223e-001  2.550915e-008  9.645166e-001
    outer loop
      vertex  6.318858e-001  6.318905e-001  1.929783e+000
      vertex  8.432434e-001  4.915676e+001  1.987637e+000
      vertex  6.318905e-001  4.936811e+001  1.929783e+000
    endloop
  endfacet
  facet normal -4.725488e-001  4.565643e-008  8.813046e-001
    outer loop
      vertex  6.318858e-001  6.318905e-001  1.929783e+000
      vertex  6.318905e-001  4.936811e+001  1.929783e+000
      vertex  4.292929e-001  4.292929e-001  1.821154e+000
    endloop
  endfacet
  facet normal -4.725402e-001  0.000000e+000  8.813091e-001
    outer loop
      vertex  4.292929e-001  4.292929e-001  1.821154e+000
      vertex  6.318905e-001  4.936811e+001  1.929783e+000
      vertex  4.292929e-001  4.957071e+001  1.821154e+000
    endloop
  endfacet
  facet normal -6.673196e-001  0.000000e+000  7.447714e-001
    outer loop
      vertex  4.292929e-001  4.292929e-001  1.821154e+000
      vertex  4.292929e-001  4.957071e+001  1.821154e+000
      vertex  2.462120e-001  2.462072e-001  1.657112e+000
    endloop
  endfacet
  facet normal -6.673100e-001 -6.447348e-008  7.447801e-001
    outer loop
      vertex  2.462120e-001  2.462072e-001  1.657112e+000
      vertex  4.292929e-001  4.957071e+001  1.821154e+000
      vertex  2.462072e-001  4.975379e+001  1.657112e+000
    endloop
  endfacet
  facet normal -7.950645e-001 -7.681673e-008  6.065248e-001
    outer loop
      vertex  2.462120e-001  2.462072e-001  1.657112e+000
      vertex  2.462072e-001  4.975379e+001  1.657112e+000
      vertex  1.670315e-001  1.670301e-001  1.553318e+000
    endloop
  endfacet
  facet normal -7.950768e-001 -2.361597e-008  6.065087e-001
    outer loop
      vertex  1.670315e-001  1.670301e-001  1.553318e+000
      vertex  2.462072e-001  4.975379e+001  1.657112e+000
      vertex  1.670301e-001  4.983297e+001  1.553318e+000
    endloop
  endfacet
  facet normal -8.687266e-001 -2.580357e-008  4.952919e-001
    outer loop
      vertex  1.670315e-001  1.670301e-001  1.553318e+000
      vertex  1.670301e-001  4.983297e+001  1.553318e+000
      vertex  9.954410e-002  9.954410e-002  1.434947e+000
    endloop
  endfacet
  facet normal -8.687313e-001  0.000000e+000  4.952837e-001
    outer loop
      vertex  9.954410e-002  9.954410e-002  1.434947e+000
      vertex  1.670301e-001  4.983297e+001  1.553318e+000
      vertex  9.954410e-002  4.990046e+001  1.434947e+000
    endloop
  endfacet
  facet normal -9.427466e-001  0.000000e+000  3.335100e-001
    outer loop
      vertex  9.954410e-002  9.954410e-002  1.434947e+000
      vertex  9.954410e-002  4.990046e+001  1.434947e+000
      vertex  2.635201e-002  2.635110e-002  1.228052e+000
    endloop
  endfacet
  facet normal -9.427453e-001 -1.719180e-008  3.335137e-001
    outer loop
      vertex  2.635201e-002  2.635110e-002  1.228052e+000
      vertex  9.954410e-002  4.990046e+001  1.434947e+000
      vertex  2.635110e-002  4.997365e+001  1.228052e+000
    endloop
  endfacet
  facet normal -9.933900e-001 -1.811535e-008  1.147887e-001
    outer loop
      vertex  2.635201e-002  2.635110e-002  1.228052e+000
      vertex  2.635110e-002  4.997365e+001  1.228052e+000
      vertex  0.000000e+000  0.000000e+000  1.000000e+000
    endloop
  endfacet
  facet normal -9.933904e-001  0.000000e+000  1.147848e-001
    outer loop
      vertex  0.000000e+000  0.000000e+000  1.000000e+000
      vertex  2.635110e-002  4.997365e+001  1.228052e+000
      vertex  0.000000e+000  5.000000e+001  1.000000e+000
    endloop
  endfacet
  facet normal  0.000000e+000  7.862120e-002  9.969046e-001
    outer loop
      vertex  1.000000e+000  4.900000e+001  2.000000e+000
      vertex  4.900000e+001  4.900000e+001  2.000000e+000
      vertex  8.432434e-001  4.915676e+001  1.987637e+000
    endloop
  endfacet
  facet normal  -0.000000e+000  7.862119e-002  9.969045e-001
    outer loop
      vertex  8.432434e-001  4.915676e+001  1.987637e+000
      vertex  4.900000e+001  4.900000e+001  2.000000e+000
      vertex  4.915676e+001  4.915676e+001  1.987637e+000
    endloop
  endfacet
  facet normal  0.000000e+000  2.640175e-001  9.645180e-001
    outer loop
      vertex  8.432434e-001  4.915676e+001  1.987637e+000
      vertex  4.915676e+001  4.915676e+001  1.987637e+000
      vertex  6.318905e-001  4.936811e+001  1.929783e+000
    endloop
  endfacet
  facet normal  -0.000000e+000  2.640174e-001  9.645179e-001
    outer loop
      vertex  6.318905e-001  4.936811e+001  1.929783e+000
      vertex  4.915676e+001  4.915676e+001  1.987637e+000
      vertex  4.936811e+001  4.936811e+001  1.929783e+000
    endloop
  endfacet
  facet normal  0.000000e+000  4.725522e-001  8.813027e-001
    outer loop
      vertex  6.318905e-001  4.936811e+001  1.929783e+000
      vertex  4.936811e+001  4.936811e+001  1.929783e+000
      vertex  4.292929e-001  4.957071e+001  1.821154e+000
    endloop
  endfacet
  facet normal  -0.000000e+000  4.725523e-001  8.813027e-001
    outer loop
      vertex  4.292929e-001  4.957071e+001  1.821154e+000
      vertex  4.936811e+001  4.936811e+001  1.929783e+000
      vertex  4.957071e+001  4.957071e+001  1.821154e+000
    endloop
  endfacet
  facet normal  0.000000e+000  6.673164e-001  7.447743e-001
    outer loop
      vertex  4.292929e-001  4.957071e+001  1.821154e+000
      vertex  4.957071e+001  4.957071e+001  1.821154e+000
      vertex  2.462072e-001  4.975379e+001  1.657112e+000
    endloop
  endfacet
  facet normal  -0.000000e+000  6.673164e-001  7.447743e-001
    outer loop
      vertex  2.462072e-001  4.975379e+001  1.657112e+000
      vertex  4.957071e+001  4.957071e+001  1.821154e+000
      vertex  4.975379e+001  4.975379e+001  1.657112e+000
    endloop
  endfacet
  facet normal  0.000000e+000  7.950600e-001  6.065309e-001
    outer loop
      vertex  2.462072e-001  4.975379e+001  1.657112e+000
      vertex  4.975379e+001  4.975379e+001  1.657112e+000
      vertex  1.670301e-001  4.983297e+001  1.553318e+000
    endloop
  endfacet
  facet normal  -0.000000e+000  7.950600e-001  6.065308e-001
    outer loop
      vertex  1.670301e-001  4.983297e+001  1.553318e+000
      vertex  4.975379e+001  4.975379e+001  1.657112e+000
      vertex  4.983297e+001  4.983297e+001  1.553318e+000
    endloop
  endfacet
  facet normal  0.000000e+000  8.687319e-001  4.952828e-001
    outer loop
      vertex  1.670301e-001  4.983297e+001  1.553318e+000
      vertex  4.983297e+001  4.983297e+001  1.553318e+000
      vertex  9.954410e-002  4.990046e+001  1.434947e+000
    endloop
  endfacet
  facet normal  -0.000000e+000  8.687318e-001  4.952829e-001
    outer loop
      vertex  9.954410e-002  4.990046e+001  1.434947e+000
      vertex  4.983297e+001  4.983297e+001  1.553318e+000
      vertex  4.990046e+001  4.990046e+001  1.434947e+000
    endloop
  endfacet
  facet normal  0.000000e+000  9.427459e-001  3.335121e-001
    outer loop
      vertex  9.954410e-002  4.990046e+001  1.434947e+000
      vertex  4.990046e+001  4.990046e+001  1.434947e+000
      vertex  2.635110e-002  4.997365e+001  1.228052e+000
    endloop
  endfacet
  facet normal  -0.000000e+000  9.427458e-001  3.335120e-001
    outer loop
      vertex  2.635110e-002  4.997365e+001  1.228052e+000
      vertex  4.990046e+001  4.990046e+001  1.434947e+000
      vertex  4.997365e+001  4.997365e+001  1.228052e+000
    endloop
  endfacet
  facet normal  0.000000e+000  9.933900e-001  1.147883e-001
    outer loop
      vertex  2.635110e-002  4.997365e+001  1.228052e+000
      vertex  4.997365e+001  4.997365e+001  1.228052e+000
      vertex  0.000000e+000  5.000000e+001  1.000000e+000
    endloop
  endfacet
  facet normal  -0.000000e+000  9.933901e-001  1.147884e-001
    outer loop
      vertex  0.000000e+000  5.000000e+001  1.000000e+000
      vertex  4.997365e+001  4.997365e+001  1.228052e+000
      vertex  5.000000e+001  5.000000e+001  1.000000e+000
    endloop
  endfacet
  facet normal  0.000000e+000  -0.000000e+000  1.000000e+000
    outer loop
      vertex  1.923290e+001  2.214502e+001  2.000000e+000
      vertex  2.715795e+001  2.214502e+001  2.000000e+000
      vertex  2.715795e+001  3.147082e+001  2.000000e+000
    endloop
  endfacet
  facet normal -1.000000e+000  -0.000000e+000  0.000000e+000
    outer loop
      vertex  2.715795e+001  2.214502e+001  4.000000e+000
      vertex  2.715795e+001  3.147082e+001  4.000000e+000
      vertex  2.715795e+001  2.214502e+001  2.000000e+000
    endloop
  endfacet
  facet normal -1.000000e+000  0.000000e+000  0.000000e+000
    outer loop
      vertex  2.715795e+001  2.214502e+001  2.000000e+000
      vertex  2.715795e+001  3.147082e+001  4.000000e+000
      vertex  2.715795e+001  3.147082e+001  2.000000e+000
    endloop
  endfacet
  facet normal  7.620152e-001 -6.475593e-001  0.000000e+000
    outer loop
      vertex  2.715795e+001  3.147082e+001  4.000000e+000
      vertex  1.923290e+001  2.214502e+001  4.000000e+000
      vertex  2.715795e+001  3.147082e+001  2.000000e+000
    endloop
  endfacet
  facet normal  7.620152e-001 -6.475593e-001  0.000000e+000
    outer loop
      vertex  2.715795e+001  3.147082e+001  2.000000e+000
      vertex  1.923290e+001  2.214502e+001  4.000000e+000
      vertex  1.923290e+001  2.214502e+001  2.000000e+000
    endloop
  endfacet
  facet normal  0.000000e+000  9.999999e-001  0.000000e+000
    outer loop
      vertex  1.923290e+001  2.214502e+001  4.000000e+000
      vertex  2.715795e+001  2.214502e+001  4.000000e+000
      vertex  1.923290e+001  2.214502e+001  2.000000e+000
    endloop
  endfacet
  facet normal  0.000000e+000  9.999999e-001  0.000000e+000
    outer loop
      vertex  1.923290e+001  2.214502e+001  2.000000e+000
      vertex  2.715795e+001  2.214502e+001  4.000000e+000
      vertex  2.715795e+001  2.214502e+001  2.000000e+000
    endloop
  endfacet
  facet normal  0.000000e+000 -1.000000e+000  0.000000e+000
    outer loop
      vertex  2.715795e+001  1.575748e+001  4.000000e+000
      vertex  1.215936e+001  1.575748e+001  4.000000e+000
      vertex  2.715795e+001  1.575748e+001  2.000000e+000
    endloop
  endfacet
  facet normal  0.000000e+000 -1.000000e+000  0.000000e+000
    outer loop
      vertex  2.715795e+001  1.575748e+001  2.000000e+000
      vertex  1.215936e+001  1.575748e+001  4.000000e+000
      vertex  1.215936e+001  1.575748e+001  2.000000e+000
    endloop
  endfacet
  facet normal -9.999999e-001  -0.000000e+000  0.000000e+000
    outer loop
      vertex  1.215936e+001  1.575748e+001  4.000000e+000
      vertex  1.215936e+001  2.252909e+001  4.000000e+000
      vertex  1.215936e+001  1.575748e+001  2.000000e+000
    endloop
  endfacet
  facet normal -9.999999e-001  0.000000e+000  0.000000e+000
    outer loop
      vertex  1.215936e+001  1.575748e+001  2.000000e+000
      vertex  1.215936e+001  2.252909e+001  4.000000e+000
      vertex  1.215936e+001  2.252909e+001  2.000000e+000
    endloop
  endfacet
  facet normal -7.652261e-001  6.437616e-001  0.000000e+000
    outer loop
      vertex  1.215936e+001  2.252909e+001  4.000000e+000
      vertex  2.715795e+001  4.035760e+001  4.000000e+000
      vertex  1.215936e+001  2.252909e+001  2.000000e+000
    endloop
  endfacet
  facet normal -7.652261e-001  6.437616e-001  0.000000e+000
    outer loop
      vertex  1.215936e+001  2.252909e+001  2.000000e+000
      vertex  2.715795e+001  4.035760e+001  4.000000e+000
      vertex  2.715795e+001  4.035760e+001  2.000000e+000
    endloop
  endfacet
  facet normal  0.000000e+000  1.000000e+000  0.000000e+000
    outer loop
      vertex  2.715795e+001  4.035760e+001  4.000000e+000
      vertex  3.433382e+001  4.035760e+001  4.000000e+000
      vertex  2.715795e+001  4.035760e+001  2.000000e+000
    endloop
  endfacet
  facet normal  0.000000e+000  1.000000e+000  0.000000e+000
    outer loop
      vertex  2.715795e+001  4.035760e+001  2.000000e+000
      vertex  3.433382e+001  4.035760e+001  4.000000e+000
      vertex  3.433382e+001  4.035760e+001  2.000000e+000
    endloop
  endfacet
  facet normal  1.000000e+000  -0.000000e+000  0.000000e+000
    outer loop
      vertex  3.433382e+001  4.035760e+001  4.000000e+000
      vertex  3.433382e+001  2.214502e+001  4.000000e+000
      vertex  3.433382e+001  4.035760e+001  2.000000e+000
    endloop
  endfacet
  facet normal  1.000000e+000  0.000000e+000  0.000000e+000
    outer loop
      vertex  3.433382e+001  4.035760e+001  2.000000e+000
      vertex  3.433382e+001  2.214502e+001  4.000000e+000
      vertex  3.433382e+001  2.214502e+001  2.000000e+000
    endloop
  endfacet
  facet normal  0.000000e+000  1.000000e+000  0.000000e+000
    outer loop
      vertex  3.433382e+001  2.214502e+001  4.000000e+000
      vertex  3.805315e+001  2.214502e+001  4.000000e+000
      vertex  3.433382e+001  2.214502e+001  2.000000e+000
    endloop
  endfacet
  facet normal  0.000000e+000  1.000000e+000  0.000000e+000
    outer loop
      vertex  3.433382e+001  2.214502e+001  2.000000e+000
      vertex  3.805315e+001  2.214502e+001  4.000000e+000
      vertex  3.805315e+001  2.214502e+001  2.000000e+000
    endloop
  endfacet
  facet normal  1.000000e+000  -0.000000e+000  0.000000e+000
    outer loop
      vertex  3.805315e+001  2.214502e+001  4.000000e+000
      vertex  3.805315e+001  1.575748e+001  4.000000e+000
      vertex  3.805315e+001  2.214502e+001  2.000000e+000
    endloop
  endfacet
  facet normal  1.000000e+000  0.000000e+000  0.000000e+000
    outer loop
      vertex  3.805315e+001  2.214502e+001  2.000000e+000
      vertex  3.805315e+001  1.575748e+001  4.000000e+000
      vertex  3.805315e+001  1.575748e+001  2.000000e+000
    endloop
  endfacet
  facet normal  0.000000e+000 -1.000000e+000  0.000000e+000
    outer loop
      vertex  3.805315e+001  1.575748e+001  4.000000e+000
      vertex  3.433382e+001  1.575748e+001  4.000000e+000
      vertex  3.805315e+001  1.575748e+001  2.000000e+000
    endloop
  endfacet
  facet normal  0.000000e+000 -1.000000e+000  0.000000e+000
    outer loop
      vertex  3.805315e+001  1.575748e+001  2.000000e+000
      vertex  3.433382e+001  1.575748e+001  4.000000e+000
      vertex  3.433382e+001  1.575748e+001  2.000000e+000
    endloop
  endfacet
  facet normal  1.000000e+000  -0.000000e+000  0.000000e+000
    outer loop
      vertex  3.433382e+001  1.575748e+001  4.000000e+000
      vertex  3.433382e+001  1.021892e+001  4.000000e+000
      vertex  3.433382e+001  1.575748e+001  2.000000e+000
    endloop
  endfacet
  facet normal  1.000000e+000  0.000000e+000  0.000000e+000
    outer loop
      vertex  3.433382e+001  1.575748e+001  2.000000e+000
      vertex  3.433382e+001  1.021892e+001  4.000000e+000
      vertex  3.433382e+001  1.021892e+001  2.000000e+000
    endloop
  endfacet
  facet normal  0.000000e+000 -1.000000e+000  0.000000e+000
    outer loop
      vertex  3.433382e+001  1.021892e+001  4.000000e+000
      vertex  2.715795e+001  1.021892e+001  4.000000e+000
      vertex  3.433382e+001  1.021892e+001  2.000000e+000
    endloop
  endfacet
  facet normal  0.000000e+000 -1.000000e+000  0.000000e+000
    outer loop
      vertex  3.433382e+001  1.021892e+001  2.000000e+000
      vertex  2.715795e+001  1.021892e+001  4.000000e+000
      vertex  2.715795e+001  1.021892e+001  2.000000e+000
    endloop
  endfacet
  facet normal -1.000000e+000  -0.000000e+000  0.000000e+000
    outer loop
      vertex  2.715795e+001  1.021892e+001  4.000000e+000
      vertex  2.715795e+001  1.575748e+001  4.000000e+000
      vertex  2.715795e+001  1.021892e+001  2.000000e+000
    endloop
  endfacet
  facet normal -1.000000e+000  0.000000e+000  0.000000e+000
    outer loop
      vertex  2.715795e+001  1.021892e+001  2.000000e+000
      vertex  2.715795e+001  1.575748e+001  4.000000e+000
      vertex  2.715795e+001  1.575748e+001  2.000000e+000
    endloop
  endfacet
  facet normal  0.000000e+000  0.000000e+000  1.000000e+000
    outer loop
      vertex  3.433382e+001  2.214502e+001  4.000000e+000
      vertex  3.433382e+001  4.035760e+001  4.000000e+000
      vertex  2.715795e+001  3.147082e+001  4.000000e+000
    endloop
  endfacet
  facet normal  0.000000e+000  0.000000e+000  1.000000e+000
    outer loop
      vertex  3.433382e+001  2.214502e+001  4.000000e+000
      vertex  2.715795e+001  3.147082e+001  4.000000e+000
      vertex  2.715795e+001  2.214502e+001  4.000000e+000
    endloop
  endfacet
  facet normal  -0.000000e+000  0.000000e+000  9.999999e-001
    outer loop
      vertex  3.433382e+001  2.214502e+001  4.000000e+000
      vertex  2.715795e+001  2.214502e+001  4.000000e+000
      vertex  2.715795e+001  1.575748e+001  4.000000e+000
    endloop
  endfacet
  facet normal  0.000000e+000  0.000000e+000  1.000000e+000
    outer loop
      vertex  3.433382e+001  2.214502e+001  4.000000e+000
      vertex  2.715795e+001  1.575748e+001  4.000000e+000
      vertex  3.805315e+001  2.214502e+001  4.000000e+000
    endloop
  endfacet
  facet normal  0.000000e+000  -0.000000e+000  1.000000e+000
    outer loop
      vertex  3.433382e+001  1.575748e+001  4.000000e+000
      vertex  3.805315e+001  1.575748e+001  4.000000e+000
      vertex  3.805315e+001  2.214502e+001  4.000000e+000
    endloop
  endfacet
  facet normal  0.000000e+000  0.000000e+000  9.999999e-001
    outer loop
      vertex  3.433382e+001  1.575748e+001  4.000000e+000
      vertex  3.805315e+001  2.214502e+001  4.000000e+000
      vertex  2.715795e+001  1.575748e+001  4.000000e+000
    endloop
  endfacet
  facet normal  -0.000000e+000  0.000000e+000  1.000000e+000
    outer loop
      vertex  3.433382e+001  1.575748e+001  4.000000e+000
      vertex  2.715795e+001  1.575748e+001  4.000000e+000
      vertex  2.715795e+001  1.021892e+001  4.000000e+000
    endloop
  endfacet
  facet normal  0.000000e+000  0.000000e+000  1.000000e+000
    outer loop
      vertex  3.433382e+001  1.575748e+001  4.000000e+000
      vertex  2.715795e+001  1.021892e+001  4.000000e+000
      vertex  3.433382e+001  1.021892e+001  4.000000e+000
    endloop
  endfacet
  facet normal  0.000000e+000  0.000000e+000  1.000000e+000
    outer loop
      vertex  2.715795e+001  1.575748e+001  4.000000e+000
      vertex  2.715795e+001  2.214502e+001  4.000000e+000
      vertex  1.215936e+001  1.575748e+001  4.000000e+000
    endloop
  endfacet
  facet normal  0.000000e+000  0.000000e+000  1.000000e+000
    outer loop
      vertex  1.215936e+001  1.575748e+001  4.000000e+000
      vertex  2.715795e+001  2.214502e+001  4.000000e+000
      vertex  1.923290e+001  2.214502e+001  4.000000e+000
    endloop
  endfacet
  facet normal  0.000000e+000  0.000000e+000  1.000000e+000
    outer loop
      vertex  1.215936e+001  1.575748e+001  4.000000e+000
      vertex  1.923290e+001  2.214502e+001  4.000000e+000
      vertex  1.215936e+001  2.252909e+001  4.000000e+000
    endloop
  endfacet
  facet normal  0.000000e+000  -0.000000e+000  1.000000e+000
    outer loop
      vertex  1.215936e+001  2.252909e+001  4.000000e+000
      vertex  1.923290e+001  2.214502e+001  4.000000e+000
      vertex  2.715795e+001  4.035760e+001  4.000000e+000
    endloop
  endfacet
  facet normal  0.000000e+000  0.000000e+000  1.000000e+000
    outer loop
      vertex  2.715795e+001  4.035760e+001  4.000000e+000
      vertex  1.923290e+001  2.214502e+001  4.000000e+000
      vertex  2.715795e+001  3.147082e+001  4.000000e+000
    endloop
  endfacet
  facet normal  0.000000e+000  0.000000e+000  1.000000e+000
    outer loop
      vertex  2.715795e+001  4.035760e+001  4.000000e+000
      vertex  2.715795e+001  3.147082e+001  4.000000e+000
      vertex  3.433382e+001  4.035760e+001  4.000000e+000
    endloop
  endfacet
  facet normal  0.000000e+000  0.000000e+000 -1.000000e+000
    outer loop
      vertex  0.000000e+000  0.000000e+000  0.000000e+000
      vertex  0.000000e+000  5.000000e+001  0.000000e+000
      vertex  5.000000e+001  0.000000e+000  0.000000e+000
    endloop
  endfacet
  facet normal  0.000000e+000  0.000000e+000 -1.000000e+000
    outer loop
      vertex  5.000000e+001  0.000000e+000  0.000000e+000
      vertex  0.000000e+000  5.000000e+001  0.000000e+000
      vertex  5.000000e+001  5.000000e+001  0.000000e+000
    endloop
  endfacet
endsolid CATIA STL
