  0
SECTION
  2
HEADER
  9
$ACADVER
  1
AC1009
  9
$EXTMIN
 10
8.05310368
 20
10.12500000
 30
0.0
  9
$EXTMAX
 10
191.07272283
 20
38.58016144
 30
0.0
  0
ENDSEC
  0
SECTION
  2
TABLES
  0
TABLE
  2
LAYER
 70
1
 0
LAYER
 2
Default_Layer
 70
0
 62
1
 6
CONTINUOUS
 0
ENDTAB
 0
ENDSEC
  0
SECTION
  2
ENTITIES
  0
POLYLINE
  8
Default_Layer
 66
   1
 39
0.000000
 70
    1
  0
VERTEX
  8
0
 10
8.05310368
 20
38.11091405
  0
VERTEX
  8
0
 10
20.68524329
 20
38.11091405
  0
VERTEX
  8
0
 10
21.59646306
 20
38.09507695
  0
VERTEX
  8
0
 10
22.46251776
 20
38.04756565
  0
VERTEX
  8
0
 10
23.28340741
 20
37.96838016
  0
VERTEX
  8
0
 10
24.05913199
 20
37.85752046
  0
VERTEX
  8
0
 10
24.78969151
 20
37.71498657
  0
VERTEX
  8
0
 10
25.47508598
 20
37.54077848
  0
VERTEX
  8
0
 10
26.11531538
 20
37.33489619
  0
VERTEX
  8
0
 10
26.71037972
 20
37.09733970
  0
VERTEX
  8
0
 10
27.27494298
 20
36.83016197
  0
VERTEX
  8
0
 10
27.81428419
 20
36.53541596
  0
VERTEX
  8
0
 10
28.32840336
 20
36.21310166
  0
VERTEX
  8
0
 10
28.81730048
 20
35.86321908
  0
VERTEX
  8
0
 10
29.28097555
 20
35.48576821
  0
VERTEX
  8
0
 10
29.71942858
 20
35.08074906
  0
VERTEX
  8
0
 10
30.13265955
 20
34.64816163
  0
VERTEX
  8
0
 10
30.52066849
 20
34.18800591
  0
VERTEX
  8
0
 10
30.88316209
 20
33.70438783
  0
VERTEX
  8
0
 10
31.21984709
 20
33.20141328
  0
VERTEX
  8
0
 10
31.53072348
 20
32.67908229
  0
VERTEX
  8
0
 10
31.81579127
 20
32.13739484
  0
VERTEX
  8
0
 10
32.07505045
 20
31.57635093
  0
VERTEX
  8
0
 10
32.30850102
 20
30.99595057
  0
VERTEX
  8
0
 10
32.51614299
 20
30.39619376
  0
VERTEX
  8
0
 10
32.69797635
 20
29.77708049
  0
VERTEX
  8
0
 10
32.85634735
 20
29.14359652
  0
VERTEX
  8
0
 10
32.99360221
 20
28.50072760
  0
VERTEX
  8
0
 10
33.10974093
 20
27.84847374
  0
VERTEX
  8
0
 10
33.20476353
 20
27.18683492
  0
VERTEX
  8
0
 10
33.27866999
 20
26.51581116
  0
VERTEX
  8
0
 10
33.33146032
 20
25.83540246
  0
VERTEX
  8
0
 10
33.36313452
 20
25.14560880
  0
VERTEX
  8
0
 10
33.37369259
 20
24.44643020
  0
VERTEX
  8
0
 10
33.35785549
 20
23.37449320
  0
VERTEX
  8
0
 10
33.31034419
 20
22.36414492
  0
VERTEX
  8
0
 10
33.23115869
 20
21.41538537
  0
VERTEX
  8
0
 10
33.12029900
 20
20.52821453
  0
VERTEX
  8
0
 10
32.97776511
 20
19.70263241
  0
VERTEX
  8
0
 10
32.80355701
 20
18.93863901
  0
VERTEX
  8
0
 10
32.59767472
 20
18.23623433
  0
VERTEX
  8
0
 10
32.36011824
 20
17.59541837
  0
VERTEX
  8
0
 10
32.09909938
 20
17.00211371
  0
VERTEX
  8
0
 10
31.81344503
 20
16.43285798
  0
VERTEX
  8
0
 10
31.50315520
 20
15.88765117
  0
VERTEX
  8
0
 10
31.16822988
 20
15.36649329
  0
VERTEX
  8
0
 10
30.80866907
 20
14.86938434
  0
VERTEX
  8
0
 10
30.42447277
 20
14.39632432
  0
VERTEX
  8
0
 10
30.01564099
 20
13.94731323
  0
VERTEX
  8
0
 10
29.58217372
 20
13.52235107
  0
VERTEX
  8
0
 10
29.13228278
 20
13.13111606
  0
VERTEX
  8
0
 10
28.67418003
 20
12.77390149
  0
VERTEX
  8
0
 10
28.20786544
 20
12.45070735
  0
VERTEX
  8
0
 10
27.73333902
 20
12.16153365
  0
VERTEX
  8
0
 10
27.25060077
 20
11.90638039
  0
VERTEX
  8
0
 10
26.75965069
 20
11.68524756
  0
VERTEX
  8
0
 10
26.26048879
 20
11.49813516
  0
VERTEX
  8
0
 10
25.75311505
 20
11.34504320
  0
VERTEX
  8
0
 10
25.06214828
 20
11.16907543
  0
VERTEX
  8
0
 10
24.38760516
 20
11.01657003
  0
VERTEX
  8
0
 10
23.72948570
 20
10.88752700
  0
VERTEX
  8
0
 10
23.08778990
 20
10.78194634
  0
VERTEX
  8
0
 10
22.46251776
 20
10.69982805
  0
VERTEX
  8
0
 10
21.85366928
 20
10.64117212
  0
VERTEX
  8
0
 10
21.26124446
 20
10.60597857
  0
VERTEX
  8
0
 10
20.68524329
 20
10.59424739
  0
VERTEX
  8
0
 10
8.05310368
 20
10.59424739
  0
VERTEX
  8
0
 10
8.05310368
 20
38.11091405
  0
SEQEND
  0
POLYLINE
  8
Default_Layer
 66
   1
 39
0.000000
 70
    1
  0
VERTEX
  8
0
 10
16.55586630
 20
31.87930878
  0
VERTEX
  8
0
 10
16.55586630
 20
16.84462256
  0
VERTEX
  8
0
 10
18.63932469
 20
16.84462256
  0
VERTEX
  8
0
 10
19.28160705
 20
16.85371422
  0
VERTEX
  8
0
 10
19.87579155
 20
16.88098923
  0
VERTEX
  8
0
 10
20.42187820
 20
16.92644757
  0
VERTEX
  8
0
 10
20.91986698
 20
16.99008925
  0
VERTEX
  8
0
 10
21.36975792
 20
17.07191426
  0
VERTEX
  8
0
 10
21.77155099
 20
17.17192261
  0
VERTEX
  8
0
 10
22.12524621
 20
17.29011429
  0
VERTEX
  8
0
 10
22.43084357
 20
17.42648931
  0
VERTEX
  8
0
 10
22.70476673
 20
17.59013934
  0
VERTEX
  8
0
 10
22.96343935
 20
17.78077109
  0
VERTEX
  8
0
 10
23.20686143
 20
17.99838456
  0
VERTEX
  8
0
 10
23.43503297
 20
18.24297976
  0
VERTEX
  8
0
 10
23.64795397
 20
18.51455669
  0
VERTEX
  8
0
 10
23.84562443
 20
18.81311534
  0
VERTEX
  8
0
 10
24.02804435
 20
19.13865571
  0
VERTEX
  8
0
 10
24.19521373
 20
19.49117781
  0
VERTEX
  8
0
 10
24.34478634
 20
19.89033137
  0
VERTEX
  8
0
 10
24.47441593
 20
20.34638117
  0
VERTEX
  8
0
 10
24.58410250
 20
20.85932722
  0
VERTEX
  8
0
 10
24.67384607
 20
21.42916951
  0
VERTEX
  8
0
 10
24.74364661
 20
22.05590805
  0
VERTEX
  8
0
 10
24.79350415
 20
22.73954283
  0
VERTEX
  8
0
 10
24.82341867
 20
23.48007386
  0
VERTEX
  8
0
 10
24.83339018
 20
24.27750114
  0
VERTEX
  8
0
 10
24.81110093
 20
25.32773544
  0
VERTEX
  8
0
 10
24.74423317
 20
26.29174554
  0
VERTEX
  8
0
 10
24.63278692
 20
27.16953143
  0
VERTEX
  8
0
 10
24.56034686
 20
27.57609029
  0
VERTEX
  8
0
 10
24.47676216
 20
27.96109311
  0
VERTEX
  8
0
 10
24.38203285
 20
28.32453987
  0
VERTEX
  8
0
 10
24.27615891
 20
28.66643059
  0
VERTEX
  8
0
 10
24.15914034
 20
28.98676525
  0
VERTEX
  8
0
 10
24.03097715
 20
29.28554386
  0
VERTEX
  8
0
 10
23.89166933
 20
29.56276641
  0
VERTEX
  8
0
 10
23.74121689
 20
29.81843292
  0
VERTEX
  8
0
 10
23.57961982
 20
30.05254337
  0
VERTEX
  8
0
 10
23.40687813
 20
30.26509777
  0
VERTEX
  8
0
 10
23.22123213
 20
30.46056864
  0
VERTEX
  8
0
 10
23.02092215
 20
30.64342848
  0
VERTEX
  8
0
 10
22.80594819
 20
30.81367729
  0
VERTEX
  8
0
 10
22.57631025
 20
30.97131509
  0
VERTEX
  8
0
 10
22.33200833
 20
31.11634186
  0
VERTEX
  8
0
 10
22.07304243
 20
31.24875760
  0
VERTEX
  8
0
 10
21.79941255
 20
31.36856233
  0
VERTEX
  8
0
 10
21.51111869
 20
31.47575603
  0
VERTEX
  8
0
 10
21.20816085
 20
31.57033870
  0
VERTEX
  8
0
 10
20.89053902
 20
31.65231035
  0
VERTEX
  8
0
 10
20.55825322
 20
31.72167098
  0
VERTEX
  8
0
 10
20.21130343
 20
31.77842059
  0
VERTEX
  8
0
 10
19.47341192
 20
31.85408673
  0
VERTEX
  8
0
 10
18.67686448
 20
31.87930878
  0
VERTEX
  8
0
 10
16.55586630
 20
31.87930878
  0
SEQEND
  0
POLYLINE
  8
Default_Layer
 66
   1
 39
0.000000
 70
    1
  0
VERTEX
  8
0
 10
40.12972874
 20
38.11091405
  0
VERTEX
  8
0
 10
62.91638176
 20
38.11091405
  0
VERTEX
  8
0
 10
62.91638176
 20
32.23593679
  0
VERTEX
  8
0
 10
48.65126126
 20
32.23593679
  0
VERTEX
  8
0
 10
48.65126126
 20
27.86255116
  0
VERTEX
  8
0
 10
61.88403752
 20
27.86255116
  0
VERTEX
  8
0
 10
61.88403752
 20
22.25035243
  0
VERTEX
  8
0
 10
48.65126126
 20
22.25035243
  0
VERTEX
  8
0
 10
48.65126126
 20
16.82585266
  0
VERTEX
  8
0
 10
63.32931946
 20
16.82585266
  0
VERTEX
  8
0
 10
63.32931946
 20
10.59424739
  0
VERTEX
  8
0
 10
40.12972874
 20
10.59424739
  0
VERTEX
  8
0
 10
40.12972874
 20
38.11091405
  0
SEQEND
  0
POLYLINE
  8
Default_Layer
 66
   1
 39
0.000000
 70
    1
  0
VERTEX
  8
0
 10
70.25428467
 20
38.11091405
  0
VERTEX
  8
0
 10
91.27656753
 20
38.11091405
  0
VERTEX
  8
0
 10
91.27656753
 20
32.19839700
  0
VERTEX
  8
0
 10
78.79458709
 20
32.19839700
  0
VERTEX
  8
0
 10
78.79458709
 20
27.39330377
  0
VERTEX
  8
0
 10
89.45588768
 20
27.39330377
  0
VERTEX
  8
0
 10
89.45588768
 20
21.83741473
  0
VERTEX
  8
0
 10
78.79458709
 20
21.83741473
  0
VERTEX
  8
0
 10
78.79458709
 20
10.59424739
  0
VERTEX
  8
0
 10
70.25428467
 20
10.59424739
  0
VERTEX
  8
0
 10
70.25428467
 20
38.11091405
  0
SEQEND
  0
POLYLINE
  8
Default_Layer
 66
   1
 39
0.000000
 70
    1
  0
VERTEX
  8
0
 10
116.48341087
 20
21.85618463
  0
VERTEX
  8
0
 10
123.93505935
 20
19.60379718
  0
VERTEX
  8
0
 10
123.73386953
 20
18.83628443
  0
VERTEX
  8
0
 10
123.50569799
 20
18.10103243
  0
VERTEX
  8
0
 10
123.25054472
 20
17.39804119
  0
VERTEX
  8
0
 10
122.96840973
 20
16.72731071
  0
VERTEX
  8
0
 10
122.65929302
 20
16.08884099
  0
VERTEX
  8
0
 10
122.32319458
 20
15.48263202
  0
VERTEX
  8
0
 10
121.96011441
 20
14.90868381
  0
VERTEX
  8
0
 10
121.57005252
 20
14.36699636
  0
VERTEX
  8
0
 10
121.15418203
 20
13.85756967
  0
VERTEX
  8
0
 10
120.71367605
 20
13.38040373
  0
VERTEX
  8
0
 10
120.24853458
 20
12.93549856
  0
VERTEX
  8
0
 10
119.75875762
 20
12.52285414
  0
VERTEX
  8
0
 10
119.24434517
 20
12.14247048
  0
VERTEX
  8
0
 10
118.70529724
 20
11.79434757
  0
VERTEX
  8
0
 10
118.14161382
 20
11.47848543
  0
VERTEX
  8
0
 10
117.55329491
 20
11.19488404
  0
VERTEX
  8
0
 10
116.93682115
 20
10.94412997
  0
VERTEX
  8
0
 10
116.27928826
 20
10.72680977
  0
VERTEX
  8
0
 10
115.58069621
 20
10.54292345
  0
VERTEX
  8
0
 10
114.84104502
 20
10.39247101
  0
VERTEX
  8
0
 10
114.06033468
 20
10.27545244
  0
VERTEX
  8
0
 10
113.23856520
 20
10.19186775
  0
VERTEX
  8
0
 10
112.37573657
 20
10.14171694
  0
VERTEX
  8
0
 10
111.47184879
 20
10.12500000
  0
VERTEX
  8
0
 10
110.37586287
 20
10.14523629
  0
VERTEX
  8
0
 10
109.33090760
 20
10.20594517
  0
VERTEX
  8
0
 10
108.33698298
 20
10.30712664
  0
VERTEX
  8
0
 10
107.39408902
 20
10.44878070
  0
VERTEX
  8
0
 10
106.50222571
 20
10.63090734
  0
VERTEX
  8
0
 10
105.66139305
 20
10.85350657
  0
VERTEX
  8
0
 10
104.87159104
 20
11.11657838
  0
VERTEX
  8
0
 10
104.13281969
 20
11.42012278
  0
VERTEX
  8
0
 10
103.78154403
 20
11.58978504
  0
VERTEX
  8
0
 10
103.43628060
 20
11.77499112
  0
VERTEX
  8
0
 10
103.09702941
 20
11.97574102
  0
VERTEX
  8
0
 10
102.76379044
 20
12.19203473
  0
VERTEX
  8
0
 10
102.43656371
 20
12.42387227
  0
VERTEX
  8
0
 10
102.11534921
 20
12.67125362
  0
VERTEX
  8
0
 10
101.80014695
 20
12.93417880
  0
VERTEX
  8
0
 10
101.49095691
 20
13.21264779
  0
VERTEX
  8
0
 10
101.18777911
 20
13.50666061
  0
VERTEX
  8
0
 10
100.89061354
 20
13.81621724
  0
VERTEX
  8
0
 10
100.31431909
 20
14.48196197
  0
VERTEX
  8
0
 10
99.76207358
 20
15.20988198
  0
VERTEX
  8
0
 10
99.23387699
 20
15.99997726
  0
VERTEX
  8
0
 10
98.98385612
 20
16.41775408
  0
VERTEX
  8
0
 10
98.74996562
 20
16.84990159
  0
VERTEX
  8
0
 10
98.53220551
 20
17.29641980
  0
VERTEX
  8
0
 10
98.33057577
 20
17.75730872
  0
VERTEX
  8
0
 10
98.14507642
 20
18.23256834
  0
VERTEX
  8
0
 10
97.97570744
 20
18.72219866
  0
VERTEX
  8
0
 10
97.82246884
 20
19.22619968
  0
VERTEX
  8
0
 10
97.68536062
 20
19.74457140
  0
VERTEX
  8
0
 10
97.56438278
 20
20.27731382
  0
VERTEX
  8
0
 10
97.45953531
 20
20.82442694
  0
VERTEX
  8
0
 10
97.37081823
 20
21.38591077
  0
VERTEX
  8
0
 10
97.29823153
 20
21.96176529
  0
VERTEX
  8
0
 10
97.24177520
 20
22.55199052
  0
VERTEX
  8
0
 10
97.20144925
 20
23.15658645
  0
VERTEX
  8
0
 10
97.17725368
 20
23.77555307
  0
VERTEX
  8
0
 10
97.16918849
 20
24.40889040
  0
VERTEX
  8
0
 10
97.18333924
 20
25.25052958
  0
VERTEX
  8
0
 10
97.22579146
 20
26.06738663
  0
VERTEX
  8
0
 10
97.29654517
 20
26.85946155
  0
VERTEX
  8
0
 10
97.39560036
 20
27.62675435
  0
VERTEX
  8
0
 10
97.52295703
 20
28.36926502
  0
VERTEX
  8
0
 10
97.67861519
 20
29.08699356
  0
VERTEX
  8
0
 10
97.86257483
 20
29.77993997
  0
VERTEX
  8
0
 10
98.07483595
 20
30.44810425
  0
VERTEX
  8
0
 10
98.31539855
 20
31.09148641
  0
VERTEX
  8
0
 10
98.58426264
 20
31.71008644
  0
VERTEX
  8
0
 10
98.88142821
 20
32.30390434
  0
VERTEX
  8
0
 10
99.20689526
 20
32.87294011
  0
VERTEX
  8
0
 10
99.56066380
 20
33.41719376
  0
VERTEX
  8
0
 10
99.94273382
 20
33.93666528
  0
VERTEX
  8
0
 10
100.35310532
 20
34.43135467
  0
VERTEX
  8
0
 10
100.79177831
 20
34.90126194
  0
VERTEX
  8
0
 10
101.25867946
 20
35.34675367
  0
VERTEX
  8
0
 10
101.74904297
 20
35.76350401
  0
VERTEX
  8
0
 10
102.26286886
 20
36.15151294
  0
VERTEX
  8
0
 10
102.80015712
 20
36.51078047
  0
VERTEX
  8
0
 10
103.36090774
 20
36.84130660
  0
VERTEX
  8
0
 10
103.94512074
 20
37.14309132
  0
VERTEX
  8
0
 10
104.55279610
 20
37.41613464
  0
VERTEX
  8
0
 10
105.18393383
 20
37.66043656
  0
VERTEX
  8
0
 10
105.83853394
 20
37.87599708
  0
VERTEX
  8
0
 10
106.51659641
 20
38.06281619
  0
VERTEX
  8
0
 10
107.21812125
 20
38.22089391
  0
VERTEX
  8
0
 10
107.94310846
 20
38.35023022
  0
VERTEX
  8
0
 10
108.69155804
 20
38.45082513
  0
VERTEX
  8
0
 10
109.46346999
 20
38.52267863
  0
VERTEX
  8
0
 10
110.25884430
 20
38.56579074
  0
VERTEX
  8
0
 10
111.07768099
 20
38.58016144
  0
VERTEX
  8
0
 10
111.71886355
 20
38.57194961
  0
VERTEX
  8
0
 10
112.34259597
 20
38.54731412
  0
VERTEX
  8
0
 10
112.94887826
 20
38.50625497
  0
VERTEX
  8
0
 10
113.53771041
 20
38.44877217
  0
VERTEX
  8
0
 10
114.10909242
 20
38.37486571
  0
VERTEX
  8
0
 10
114.66302429
 20
38.28453558
  0
VERTEX
  8
0
 10
115.19950603
 20
38.17778180
  0
VERTEX
  8
0
 10
115.71853763
 20
38.05460437
  0
VERTEX
  8
0
 10
116.22011909
 20
37.91500327
  0
VERTEX
  8
0
 10
116.70425042
 20
37.75897851
  0
VERTEX
  8
0
 10
117.17093161
 20
37.58653010
  0
VERTEX
  8
0
 10
117.62016266
 20
37.39765803
  0
VERTEX
  8
0
 10
118.05194357
 20
37.19236230
  0
VERTEX
  8
0
 10
118.46627435
 20
36.97064291
  0
VERTEX
  8
0
 10
118.86315499
 20
36.73249986
  0
VERTEX
  8
0
 10
119.24258549
 20
36.47793315
  0
VERTEX
  8
0
 10
119.60962493
 20
36.20635623
  0
VERTEX
  8
0
 10
119.96463991
 20
35.91718253
  0
VERTEX
  8
0
 10
120.30763042
 20
35.61041205
  0
VERTEX
  8
0
 10
120.63859646
 20
35.28604479
  0
VERTEX
  8
0
 10
120.95753805
 20
34.94408076
  0
VERTEX
  8
0
 10
121.26445516
 20
34.58451995
  0
VERTEX
  8
0
 10
121.55934782
 20
34.20736237
  0
VERTEX
  8
0
 10
121.84221601
 20
33.81260800
  0
VERTEX
  8
0
 10
122.11305973
 20
33.40025686
  0
VERTEX
  8
0
 10
122.37187899
 20
32.97030895
  0
VERTEX
  8
0
 10
122.61867379
 20
32.52276425
  0
VERTEX
  8
0
 10
122.85344412
 20
32.05762278
  0
VERTEX
  8
0
 10
123.07618999
 20
31.57488454
  0
VERTEX
  8
0
 10
123.28691139
 20
31.07454951
  0
VERTEX
  8
0
 10
123.48560833
 20
30.55661771
  0
VERTEX
  8
0
 10
123.67228081
 20
30.02108913
  0
VERTEX
  8
0
 10
116.16432265
 20
28.35056844
  0
VERTEX
  8
0
 10
115.96489251
 20
28.93712767
  0
VERTEX
  8
0
 10
115.76076990
 20
29.43922237
  0
VERTEX
  8
0
 10
115.55195481
 20
29.85685255
  0
VERTEX
  8
0
 10
115.33844725
 20
30.19001819
  0
VERTEX
  8
0
 10
115.15514749
 20
30.42698812
  0
VERTEX
  8
0
 10
114.96187622
 20
30.64988063
  0
VERTEX
  8
0
 10
114.75863345
 20
30.85869571
  0
VERTEX
  8
0
 10
114.54541917
 20
31.05343338
  0
VERTEX
  8
0
 10
114.32223338
 20
31.23409362
  0
VERTEX
  8
0
 10
114.08907609
 20
31.40067644
  0
VERTEX
  8
0
 10
113.84594728
 20
31.55318184
  0
VERTEX
  8
0
 10
113.59284698
 20
31.69160982
  0
VERTEX
  8
0
 10
113.33094828
 20
31.81478726
  0
VERTEX
  8
0
 10
113.06142431
 20
31.92154104
  0
VERTEX
  8
0
 10
112.78427508
 20
32.01187116
  0
VERTEX
  8
0
 10
112.49950057
 20
32.08577763
  0
VERTEX
  8
0
 10
112.20710079
 20
32.14326043
  0
VERTEX
  8
0
 10
111.90707574
 20
32.18431958
  0
VERTEX
  8
0
 10
111.59942543
 20
32.20895506
  0
VERTEX
  8
0
 10
111.28414984
 20
32.21716689
  0
VERTEX
  8
0
 10
110.92810839
 20
32.20807523
  0
VERTEX
  8
0
 10
110.58262500
 20
32.18080022
  0
VERTEX
  8
0
 10
110.24769968
 20
32.13534188
  0
VERTEX
  8
0
 10
109.92333242
 20
32.07170020
  0
VERTEX
  8
0
 10
109.60952323
 20
31.98987519
  0
VERTEX
  8
0
 10
109.30627211
 20
31.88986684
  0
VERTEX
  8
0
 10
109.01357906
 20
31.77167516
  0
VERTEX
  8
0
 10
108.73144407
 20
31.63530014
  0
VERTEX
  8
0
 10
108.45986714
 20
31.48074178
  0
VERTEX
  8
0
 10
108.19884828
 20
31.30800009
  0
VERTEX
  8
0
 10
107.94838749
 20
31.11707506
  0
VERTEX
  8
0
 10
107.70848477
 20
30.90796669
  0
VERTEX
  8
0
 10
107.47914011
 20
30.68067499
  0
VERTEX
  8
0
 10
107.26035351
 20
30.43519995
  0
VERTEX
  8
0
 10
107.05212499
 20
30.17154157
  0
VERTEX
  8
0
 10
106.85445452
 20
29.88969986
  0
VERTEX
  8
0
 10
106.71353367
 20
29.66614748
  0
VERTEX
  8
0
 10
106.58170448
 20
29.42719791
  0
VERTEX
  8
0
 10
106.34532111
 20
28.90310724
  0
VERTEX
  8
0
 10
106.14530441
 20
28.31742784
  0
VERTEX
  8
0
 10
105.98165439
 20
27.67015973
  0
VERTEX
  8
0
 10
105.85437104
 20
26.96130290
  0
VERTEX
  8
0
 10
105.76345435
 20
26.19085735
  0
VERTEX
  8
0
 10
105.70890435
 20
25.35882308
  0
VERTEX
  8
0
 10
105.69072101
 20
24.46520009
  0
VERTEX
  8
0
 10
105.71242370
 20
23.36540153
  0
VERTEX
  8
0
 10
105.77753178
 20
22.35593309
  0
VERTEX
  8
0
 10
105.88604523
 20
21.43679478
  0
VERTEX
  8
0
 10
106.03796407
 20
20.60798658
  0
VERTEX
  8
0
 10
106.13020051
 20
20.22745628
  0
VERTEX
  8
0
 10
106.23328830
 20
19.86950851
  0
VERTEX
  8
0
 10
106.34722743
 20
19.53414327
  0
VERTEX
  8
0
 10
106.47201791
 20
19.22136056
  0
VERTEX
  8
0
 10
106.60765973
 20
18.93116038
  0
VERTEX
  8
0
 10
106.75415290
 20
18.66354273
  0
VERTEX
  8
0
 10
106.91149741
 20
18.41850761
  0
VERTEX
  8
0
 10
107.07969327
 20
18.19605503
  0
VERTEX
  8
0
 10
107.25771400
 20
17.99149249
  0
VERTEX
  8
0
 10
107.44453311
 20
17.80012754
  0
VERTEX
  8
0
 10
107.64015062
 20
17.62196018
  0
VERTEX
  8
0
 10
107.84456651
 20
17.45699039
  0
VERTEX
  8
0
 10
108.05778079
 20
17.30521819
  0
VERTEX
  8
0
 10
108.27979346
 20
17.16664357
  0
VERTEX
  8
0
 10
108.51060451
 20
17.04126654
  0
VERTEX
  8
0
 10
108.75021396
 20
16.92908709
  0
VERTEX
  8
0
 10
108.99862180
 20
16.83010521
  0
VERTEX
  8
0
 10
109.25582802
 20
16.74432093
  0
VERTEX
  8
0
 10
109.79663563
 20
16.61234510
  0
VERTEX
  8
0
 10
110.37263680
 20
16.53315960
  0
VERTEX
  8
0
 10
110.98383151
 20
16.50676444
  0
VERTEX
  8
0
 10
111.57508322
 20
16.52817385
  0
VERTEX
  8
0
 10
112.12879513
 20
16.59240209
  0
VERTEX
  8
0
 10
112.64496726
 20
16.69944915
  0
VERTEX
  8
0
 10
113.12359959
 20
16.84931503
  0
VERTEX
  8
0
 10
113.56469213
 20
17.04199974
  0
VERTEX
  8
0
 10
113.96824488
 20
17.27750327
  0
VERTEX
  8
0
 10
114.33425784
 20
17.55582562
  0
VERTEX
  8
0
 10
114.66273101
 20
17.87696680
  0
VERTEX
  8
0
 10
114.96627542
 20
18.23887385
  0
VERTEX
  8
0
 10
115.24811713
 20
18.63949380
  0
VERTEX
  8
0
 10
115.50825615
 20
19.07882667
  0
VERTEX
  8
0
 10
115.74669247
 20
19.55687244
  0
VERTEX
  8
0
 10
115.96342611
 20
20.07363112
  0
VERTEX
  8
0
 10
116.15845705
 20
20.62910272
  0
VERTEX
  8
0
 10
116.33178531
 20
21.22328722
  0
VERTEX
  8
0
 10
116.48341087
 20
21.85618463
  0
SEQEND
  0
POLYLINE
  8
Default_Layer
 66
   1
 39
0.000000
 70
    1
  0
VERTEX
  8
0
 10
129.30212324
 20
24.33381082
  0
VERTEX
  8
0
 10
129.31678722
 20
25.16445201
  0
VERTEX
  8
0
 10
129.36077916
 20
25.97177748
  0
VERTEX
  8
0
 10
129.43409906
 20
26.75578721
  0
VERTEX
  8
0
 10
129.53674693
 20
27.51648121
  0
VERTEX
  8
0
 10
129.66872276
 20
28.25385949
  0
VERTEX
  8
0
 10
129.83002655
 20
28.96792203
  0
VERTEX
  8
0
 10
130.02065830
 20
29.65866885
  0
VERTEX
  8
0
 10
130.24061801
 20
30.32609993
  0
VERTEX
  8
0
 10
130.48990568
 20
30.97021529
  0
VERTEX
  8
0
 10
130.76852132
 20
31.59101491
  0
VERTEX
  8
0
 10
131.07646491
 20
32.18849881
  0
VERTEX
  8
0
 10
131.41373647
 20
32.76266698
  0
VERTEX
  8
0
 10
131.78033599
 20
33.31351942
  0
VERTEX
  8
0
 10
132.17626347
 20
33.84105613
  0
VERTEX
  8
0
 10
132.60151891
 20
34.34527711
  0
VERTEX
  8
0
 10
133.05610232
 20
34.82618236
  0
VERTEX
  8
0
 10
133.53686093
 20
35.28076576
  0
VERTEX
  8
0
 10
134.04064199
 20
35.70602120
  0
VERTEX
  8
0
 10
134.56744550
 20
36.10194868
  0
VERTEX
  8
0
 10
135.11727146
 20
36.46854820
  0
VERTEX
  8
0
 10
135.69011987
 20
36.80581976
  0
VERTEX
  8
0
 10
136.28599073
 20
37.11376336
  0
VERTEX
  8
0
 10
136.90488404
 20
37.39237899
  0
VERTEX
  8
0
 10
137.54679980
 20
37.64166667
  0
VERTEX
  8
0
 10
138.21173800
 20
37.86162638
  0
VERTEX
  8
0
 10
138.89969866
 20
38.05225813
  0
VERTEX
  8
0
 10
139.61068177
 20
38.21356192
  0
VERTEX
  8
0
 10
140.34468733
 20
38.34553774
  0
VERTEX
  8
0
 10
141.10171534
 20
38.44818561
  0
VERTEX
  8
0
 10
141.88176580
 20
38.52150551
  0
VERTEX
  8
0
 10
142.68483870
 20
38.56549746
  0
VERTEX
  8
0
 10
143.51093406
 20
38.58016144
  0
VERTEX
  8
0
 10
144.35733903
 20
38.56571742
  0
VERTEX
  8
0
 10
145.17910852
 20
38.52238535
  0
VERTEX
  8
0
 10
145.97624251
 20
38.45016525
  0
VERTEX
  8
0
 10
146.74874102
 20
38.34905710
  0
VERTEX
  8
0
 10
147.49660404
 20
38.21906091
  0
VERTEX
  8
0
 10
148.21983157
 20
38.06017668
  0
VERTEX
  8
0
 10
148.91842362
 20
37.87240440
  0
VERTEX
  8
0
 10
149.59238017
 20
37.65574409
  0
VERTEX
  8
0
 10
150.24170124
 20
37.41019573
  0
VERTEX
  8
0
 10
150.86638682
 20
37.13575933
  0
VERTEX
  8
0
 10
151.46643692
 20
36.83243489
  0
VERTEX
  8
0
 10
152.04185152
 20
36.50022240
  0
VERTEX
  8
0
 10
152.59263064
 20
36.13912188
  0
VERTEX
  8
0
 10
153.11877427
 20
35.74913331
  0
VERTEX
  8
0
 10
153.62028242
 20
35.33025670
  0
VERTEX
  8
0
 10
154.09715507
 20
34.88249204
  0
VERTEX
  8
0
 10
154.54719264
 20
34.41104506
  0
VERTEX
  8
0
 10
154.96819553
 20
33.91642899
  0
VERTEX
  8
0
 10
155.36016374
 20
33.39864383
  0
VERTEX
  8
0
 10
155.72309726
 20
32.85768957
  0
VERTEX
  8
0
 10
156.05699610
 20
32.29356623
  0
VERTEX
  8
0
 10
156.36186026
 20
31.70627380
  0
VERTEX
  8
0
 10
156.63768974
 20
31.09581228
  0
VERTEX
  8
0
 10
156.88448454
 20
30.46218167
  0
VERTEX
  8
0
 10
157.10224465
 20
29.80538197
  0
VERTEX
  8
0
 10
157.29097009
 20
29.12541318
  0
VERTEX
  8
0
 10
157.45066084
 20
28.42227531
  0
VERTEX
  8
0
 10
157.58131691
 20
27.69596834
  0
VERTEX
  8
0
 10
157.68293829
 20
26.94649228
  0
VERTEX
  8
0
 10
157.75552500
 20
26.17384713
  0
VERTEX
  8
0
 10
157.79907702
 20
25.37803289
  0
VERTEX
  8
0
 10
157.81359436
 20
24.55904957
  0
VERTEX
  8
0
 10
157.78807903
 20
23.38006551
  0
VERTEX
  8
0
 10
157.71153305
 20
22.25504491
  0
VERTEX
  8
0
 10
157.58395642
 20
21.18398775
  0
VERTEX
  8
0
 10
157.40534914
 20
20.16689404
  0
VERTEX
  8
0
 10
157.29690900
 20
19.67858348
  0
VERTEX
  8
0
 10
157.17571120
 20
19.20376378
  0
VERTEX
  8
0
 10
157.04175573
 20
18.74243495
  0
VERTEX
  8
0
 10
156.89504260
 20
18.29459698
  0
VERTEX
  8
0
 10
156.73557181
 20
17.86024986
  0
VERTEX
  8
0
 10
156.56334336
 20
17.43939362
  0
VERTEX
  8
0
 10
156.37835724
 20
17.03202823
  0
VERTEX
  8
0
 10
156.18061346
 20
16.63815371
  0
VERTEX
  8
0
 10
155.97311813
 20
16.25864988
  0
VERTEX
  8
0
 10
155.75418490
 20
15.88970413
  0
VERTEX
  8
0
 10
155.52381376
 20
15.53131644
  0
VERTEX
  8
0
 10
155.28200472
 20
15.18348681
  0
VERTEX
  8
0
 10
155.02875777
 20
14.84621525
  0
VERTEX
  8
0
 10
154.76407292
 20
14.51950176
  0
VERTEX
  8
0
 10
154.48795016
 20
14.20334634
  0
VERTEX
  8
0
 10
154.20038950
 20
13.89774898
  0
VERTEX
  8
0
 10
153.90139093
 20
13.60270968
  0
VERTEX
  8
0
 10
153.59095445
 20
13.31822846
  0
VERTEX
  8
0
 10
153.26908008
 20
13.04430530
  0
VERTEX
  8
0
 10
152.93576779
 20
12.78094020
  0
VERTEX
  8
0
 10
152.59101760
 20
12.52813317
  0
VERTEX
  8
0
 10
152.23482951
 20
12.28588421
  0
VERTEX
  8
0
 10
151.48813961
 20
11.83306048
  0
VERTEX
  8
0
 10
151.09976408
 20
11.62622503
  0
VERTEX
  8
0
 10
150.69951072
 20
11.43273381
  0
VERTEX
  8
0
 10
150.28737954
 20
11.25258680
  0
VERTEX
  8
0
 10
149.86337054
 20
11.08578402
  0
VERTEX
  8
0
 10
149.42748371
 20
10.93232546
  0
VERTEX
  8
0
 10
148.97971906
 20
10.79221113
  0
VERTEX
  8
0
 10
148.52007658
 20
10.66544101
  0
VERTEX
  8
0
 10
148.04855628
 20
10.55201512
  0
VERTEX
  8
0
 10
147.56515815
 20
10.45193345
  0
VERTEX
  8
0
 10
147.06988220
 20
10.36519601
  0
VERTEX
  8
0
 10
146.04369682
 20
10.23175378
  0
VERTEX
  8
0
 10
144.97000015
 20
10.15168845
  0
VERTEX
  8
0
 10
143.84879218
 20
10.12500000
  0
VERTEX
  8
0
 10
142.70998743
 20
10.14816909
  0
VERTEX
  8
0
 10
141.62104022
 20
10.21767636
  0
VERTEX
  8
0
 10
140.58195054
 20
10.33352181
  0
VERTEX
  8
0
 10
139.59271839
 20
10.49570543
  0
VERTEX
  8
0
 10
138.65334379
 20
10.70422724
  0
VERTEX
  8
0
 10
137.76382671
 20
10.95908723
  0
VERTEX
  8
0
 10
137.33776475
 20
11.10389404
  0
VERTEX
  8
0
 10
136.92416717
 20
11.26028539
  0
VERTEX
  8
0
 10
136.52303398
 20
11.42826129
  0
VERTEX
  8
0
 10
136.13436517
 20
11.60782174
  0
VERTEX
  8
0
 10
135.75874730
 20
11.79991989
  0
VERTEX
  8
0
 10
135.39207446
 20
12.00550890
  0
VERTEX
  8
0
 10
135.03434665
 20
12.22458877
  0
VERTEX
  8
0
 10
134.68556386
 20
12.45715950
  0
VERTEX
  8
0
 10
134.34572611
 20
12.70322110
  0
VERTEX
  8
0
 10
134.01483338
 20
12.96277356
  0
VERTEX
  8
0
 10
133.69288568
 20
13.23581688
  0
VERTEX
  8
0
 10
133.37988302
 20
13.52235107
  0
VERTEX
  8
0
 10
133.07582537
 20
13.82237612
  0
VERTEX
  8
0
 10
132.78071276
 20
14.13589202
  0
VERTEX
  8
0
 10
132.49454518
 20
14.46289880
  0
VERTEX
  8
0
 10
132.21732262
 20
14.80339643
  0
VERTEX
  8
0
 10
131.94904509
 20
15.15738493
  0
VERTEX
  8
0
 10
131.68971259
 20
15.52486428
  0
VERTEX
  8
0
 10
131.19788267
 20
16.30029559
  0
VERTEX
  8
0
 10
130.96831805
 20
16.70780761
  0
VERTEX
  8
0
 10
130.75356406
 20
17.12793066
  0
VERTEX
  8
0
 10
130.55362068
 20
17.56066474
  0
VERTEX
  8
0
 10
130.36848792
 20
18.00600983
  0
VERTEX
  8
0
 10
130.19816578
 20
18.46396595
  0
VERTEX
  8
0
 10
130.04265427
 20
18.93453310
  0
VERTEX
  8
0
 10
129.90195337
 20
19.41771126
  0
VERTEX
  8
0
 10
129.77606310
 20
19.91350045
  0
VERTEX
  8
0
 10
129.66498344
 20
20.42190067
  0
VERTEX
  8
0
 10
129.56871441
 20
20.94291191
  0
VERTEX
  8
0
 10
129.48725600
 20
21.47653417
  0
VERTEX
  8
0
 10
129.42060820
 20
22.02276745
  0
VERTEX
  8
0
 10
129.36877103
 20
22.58161176
  0
VERTEX
  8
0
 10
129.33174448
 20
23.15306709
  0
VERTEX
  8
0
 10
129.30952855
 20
23.73713344
  0
VERTEX
  8
0
 10
129.30212324
 20
24.33381082
  0
SEQEND
  0
POLYLINE
  8
Default_Layer
 66
   1
 39
0.000000
 70
    1
  0
VERTEX
  8
0
 10
137.80488586
 20
24.29627103
  0
VERTEX
  8
0
 10
137.82893479
 20
23.29120179
  0
VERTEX
  8
0
 10
137.90108157
 20
22.35945245
  0
VERTEX
  8
0
 10
138.02132621
 20
21.50102301
  0
VERTEX
  8
0
 10
138.09948523
 20
21.09930326
  0
VERTEX
  8
0
 10
138.18966871
 20
20.71591348
  0
VERTEX
  8
0
 10
138.29187666
 20
20.35085368
  0
VERTEX
  8
0
 10
138.40610907
 20
20.00412386
  0
VERTEX
  8
0
 10
138.53236594
 20
19.67572401
  0
VERTEX
  8
0
 10
138.67064728
 20
19.36565413
  0
VERTEX
  8
0
 10
138.82095309
 20
19.07391423
  0
VERTEX
  8
0
 10
138.98328335
 20
18.80050431
  0
VERTEX
  8
0
 10
139.15763808
 20
18.54542437
  0
VERTEX
  8
0
 10
139.34401728
 20
18.30867440
  0
VERTEX
  8
0
 10
139.54308082
 20
18.08820145
  0
VERTEX
  8
0
 10
139.75079611
 20
17.88195256
  0
VERTEX
  8
0
 10
139.96716314
 20
17.68992773
  0
VERTEX
  8
0
 10
140.19218193
 20
17.51212696
  0
VERTEX
  8
0
 10
140.42585246
 20
17.34855026
  0
VERTEX
  8
0
 10
140.66817475
 20
17.19919761
  0
VERTEX
  8
0
 10
140.91914878
 20
17.06406903
  0
VERTEX
  8
0
 10
141.17877456
 20
16.94316451
  0
VERTEX
  8
0
 10
141.44705209
 20
16.83648405
  0
VERTEX
  8
0
 10
141.72398136
 20
16.74402765
  0
VERTEX
  8
0
 10
142.00956239
 20
16.66579531
  0
VERTEX
  8
0
 10
142.30379516
 20
16.60178703
  0
VERTEX
  8
0
 10
142.60667969
 20
16.55200282
  0
VERTEX
  8
0
 10
142.91821596
 20
16.51644267
  0
VERTEX
  8
0
 10
143.56724375
 20
16.48799454
  0
VERTEX
  8
0
 10
144.23298847
 20
16.51585611
  0
VERTEX
  8
0
 10
144.55134350
 20
16.55068306
  0
VERTEX
  8
0
 10
144.86002029
 20
16.59944080
  0
VERTEX
  8
0
 10
145.15901886
 20
16.66212931
  0
VERTEX
  8
0
 10
145.44833920
 20
16.73874861
  0
VERTEX
  8
0
 10
145.72798132
 20
16.82929870
  0
VERTEX
  8
0
 10
145.99794520
 20
16.93377956
  0
VERTEX
  8
0
 10
146.25823086
 20
17.05219120
  0
VERTEX
  8
0
 10
146.50883829
 20
17.18453363
  0
VERTEX
  8
0
 10
146.74976750
 20
17.33080684
  0
VERTEX
  8
0
 10
146.98101847
 20
17.49101083
  0
VERTEX
  8
0
 10
147.20259122
 20
17.66514560
  0
VERTEX
  8
0
 10
147.41448575
 20
17.85321115
  0
VERTEX
  8
0
 10
147.61670204
 20
18.05520749
  0
VERTEX
  8
0
 10
147.80924011
 20
18.27113461
  0
VERTEX
  8
0
 10
147.99107347
 20
18.50509842
  0
VERTEX
  8
0
 10
148.16117565
 20
18.76120484
  0
VERTEX
  8
0
 10
148.31954664
 20
19.03945388
  0
VERTEX
  8
0
 10
148.46618645
 20
19.33984553
  0
VERTEX
  8
0
 10
148.60109507
 20
19.66237978
  0
VERTEX
  8
0
 10
148.72427251
 20
20.00705665
  0
VERTEX
  8
0
 10
148.83571876
 20
20.37387613
  0
VERTEX
  8
0
 10
148.93543383
 20
20.76283822
  0
VERTEX
  8
0
 10
149.02341772
 20
21.17394292
  0
VERTEX
  8
0
 10
149.09967042
 20
21.60719024
  0
VERTEX
  8
0
 10
149.21698226
 20
22.54011269
  0
VERTEX
  8
0
 10
149.28736937
 20
23.56160559
  0
VERTEX
  8
0
 10
149.31083174
 20
24.67166894
  0
VERTEX
  8
0
 10
149.28619625
 20
25.61016371
  0
VERTEX
  8
0
 10
149.21228979
 20
26.48296385
  0
VERTEX
  8
0
 10
149.08911235
 20
27.29006935
  0
VERTEX
  8
0
 10
149.00904702
 20
27.66898661
  0
VERTEX
  8
0
 10
148.91666394
 20
28.03148022
  0
VERTEX
  8
0
 10
148.81196312
 20
28.37755016
  0
VERTEX
  8
0
 10
148.69494455
 20
28.70719645
  0
VERTEX
  8
0
 10
148.56560824
 20
29.02041908
  0
VERTEX
  8
0
 10
148.42395418
 20
29.31721805
  0
VERTEX
  8
0
 10
148.26998239
 20
29.59759337
  0
VERTEX
  8
0
 10
148.10369284
 20
29.86154502
  0
VERTEX
  8
0
 10
147.92508556
 20
30.10907302
  0
VERTEX
  8
0
 10
147.73416053
 20
30.34017735
  0
VERTEX
  8
0
 10
147.53502367
 20
30.55837739
  0
VERTEX
  8
0
 10
147.32708842
 20
30.76250000
  0
VERTEX
  8
0
 10
147.11035478
 20
30.95254519
  0
VERTEX
  8
0
 10
146.88482276
 20
31.12851296
  0
VERTEX
  8
0
 10
146.65049235
 20
31.29040331
  0
VERTEX
  8
0
 10
146.40736355
 20
31.43821623
  0
VERTEX
  8
0
 10
146.15543636
 20
31.57195174
  0
VERTEX
  8
0
 10
145.89471078
 20
31.69160982
  0
VERTEX
  8
0
 10
145.62518681
 20
31.79719048
  0
VERTEX
  8
0
 10
145.34686446
 20
31.88869372
  0
VERTEX
  8
0
 10
145.05974371
 20
31.96611954
  0
VERTEX
  8
0
 10
144.76382458
 20
32.02946794
  0
VERTEX
  8
0
 10
144.45910706
 20
32.07873892
  0
VERTEX
  8
0
 10
144.14559115
 20
32.11393247
  0
VERTEX
  8
0
 10
143.49216417
 20
32.14208731
  0
VERTEX
  8
0
 10
142.86513235
 20
32.11363919
  0
VERTEX
  8
0
 10
142.56349426
 20
32.07807904
  0
VERTEX
  8
0
 10
142.26977473
 20
32.02829482
  0
VERTEX
  8
0
 10
141.98397374
 20
31.96428655
  0
VERTEX
  8
0
 10
141.70609131
 20
31.88605421
  0
VERTEX
  8
0
 10
141.43612742
 20
31.79359781
  0
VERTEX
  8
0
 10
141.17408208
 20
31.68691735
  0
VERTEX
  8
0
 10
140.91995530
 20
31.56601283
  0
VERTEX
  8
0
 10
140.67374706
 20
31.43088424
  0
VERTEX
  8
0
 10
140.43545737
 20
31.28153160
  0
VERTEX
  8
0
 10
140.20508623
 20
31.11795489
  0
VERTEX
  8
0
 10
139.98263364
 20
30.94015413
  0
VERTEX
  8
0
 10
139.76809960
 20
30.74812930
  0
VERTEX
  8
0
 10
139.56148412
 20
30.54188041
  0
VERTEX
  8
0
 10
139.36278718
 20
30.32140746
  0
VERTEX
  8
0
 10
139.17413506
 20
30.08451085
  0
VERTEX
  8
0
 10
138.99765405
 20
29.82899098
  0
VERTEX
  8
0
 10
138.83334415
 20
29.55484786
  0
VERTEX
  8
0
 10
138.68120535
 20
29.26208149
  0
VERTEX
  8
0
 10
138.54123765
 20
28.95069185
  0
VERTEX
  8
0
 10
138.41344106
 20
28.62067897
  0
VERTEX
  8
0
 10
138.29781557
 20
28.27204282
  0
VERTEX
  8
0
 10
138.19436119
 20
27.90478342
  0
VERTEX
  8
0
 10
138.10307791
 20
27.51890077
  0
VERTEX
  8
0
 10
138.02396573
 20
27.11439486
  0
VERTEX
  8
0
 10
137.90225469
 20
26.24951327
  0
VERTEX
  8
0
 10
137.82922807
 20
25.31013866
  0
VERTEX
  8
0
 10
137.80488586
 20
24.29627103
  0
SEQEND
  0
POLYLINE
  8
Default_Layer
 66
   1
 39
0.000000
 70
    1
  0
VERTEX
  8
0
 10
164.75732947
 20
38.11091405
  0
VERTEX
  8
0
 10
172.69699523
 20
38.11091405
  0
VERTEX
  8
0
 10
183.05797749
 20
22.88735576
  0
VERTEX
  8
0
 10
183.05797749
 20
38.11091405
  0
VERTEX
  8
0
 10
191.07272283
 20
38.11091405
  0
VERTEX
  8
0
 10
191.07272283
 20
10.59424739
  0
VERTEX
  8
0
 10
183.05797749
 20
10.59424739
  0
VERTEX
  8
0
 10
172.75330491
 20
25.70284007
  0
VERTEX
  8
0
 10
172.75330491
 20
10.59424739
  0
VERTEX
  8
0
 10
164.75732947
 20
10.59424739
  0
VERTEX
  8
0
 10
164.75732947
 20
38.11091405
  0
SEQEND
  0
ENDSEC
  0
EOF
