  0
SECTION
  2
HEADER
  9
$ACADVER
  1
AC1009
  9
$EXTMIN
 10
-46.37430650
 20
10.98097999
 30
0.0
  9
$EXTMAX
 10
95.92298523
 20
41.62500000
 30
0.0
  0
ENDSEC
  0
SECTION
  2
TABLES
  0
TABLE
  2
LAYER
 70
1
 0
LAYER
 2
Default_Layer
 70
0
 62
1
 6
CONTINUOUS
 0
ENDTAB
 0
ENDSEC
  0
SECTION
  2
ENTITIES
  0
POLYLINE
  8
Default_Layer
 66
   1
 39
0.000000
 70
    1
  0
VERTEX
  8
0
 10
-29.39477035
 20
41.62500000
  0
VERTEX
  8
0
 10
-29.39477035
 20
11.48632333
  0
VERTEX
  8
0
 10
-37.72282856
 20
11.48632333
  0
VERTEX
  8
0
 10
-37.72282856
 20
31.23514097
  0
VERTEX
  8
0
 10
-38.72593508
 20
30.50365649
  0
VERTEX
  8
0
 10
-39.71388131
 20
29.84544679
  0
VERTEX
  8
0
 10
-40.68666724
 20
29.26051188
  0
VERTEX
  8
0
 10
-41.64429286
 20
28.74885175
  0
VERTEX
  8
0
 10
-42.12942246
 20
28.51260374
  0
VERTEX
  8
0
 10
-42.64487267
 20
28.27888245
  0
VERTEX
  8
0
 10
-43.76673488
 20
27.81902001
  0
VERTEX
  8
0
 10
-45.00987949
 20
27.36926444
  0
VERTEX
  8
0
 10
-46.37430650
 20
26.92961573
  0
VERTEX
  8
0
 10
-46.37430650
 20
33.68100273
  0
VERTEX
  8
0
 10
-45.35256544
 20
34.02811043
  0
VERTEX
  8
0
 10
-44.38957054
 20
34.39227348
  0
VERTEX
  8
0
 10
-43.48532181
 20
34.77349186
  0
VERTEX
  8
0
 10
-42.63981924
 20
35.17176558
  0
VERTEX
  8
0
 10
-41.85306283
 20
35.58709463
  0
VERTEX
  8
0
 10
-41.12505258
 20
36.01947902
  0
VERTEX
  8
0
 10
-40.45578850
 20
36.46891876
  0
VERTEX
  8
0
 10
-39.84527058
 20
36.93541382
  0
VERTEX
  8
0
 10
-39.27991772
 20
37.42433350
  0
VERTEX
  8
0
 10
-38.74614882
 20
37.94104707
  0
VERTEX
  8
0
 10
-38.24396388
 20
38.48555451
  0
VERTEX
  8
0
 10
-37.77336289
 20
39.05785584
  0
VERTEX
  8
0
 10
-37.33434587
 20
39.65795106
  0
VERTEX
  8
0
 10
-36.92691280
 20
40.28584015
  0
VERTEX
  8
0
 10
-36.55106369
 20
40.94152314
  0
VERTEX
  8
0
 10
-36.20679854
 20
41.62500000
  0
VERTEX
  8
0
 10
-29.39477035
 20
41.62500000
  0
SEQEND
  0
POLYLINE
  8
Default_Layer
 66
   1
 39
0.000000
 70
    1
  0
VERTEX
  8
0
 10
5.96225495
 20
11.48632333
  0
VERTEX
  8
0
 10
-18.73892741
 20
11.48632333
  0
VERTEX
  8
0
 10
-18.60595894
 20
12.39404630
  0
VERTEX
  8
0
 10
-18.41929775
 20
13.28787233
  0
VERTEX
  8
0
 10
-18.17894382
 20
14.16780142
  0
VERTEX
  8
0
 10
-17.88489717
 20
15.03383356
  0
VERTEX
  8
0
 10
-17.53715778
 20
15.88596876
  0
VERTEX
  8
0
 10
-17.13572567
 20
16.72420703
  0
VERTEX
  8
0
 10
-16.68060083
 20
17.54854835
  0
VERTEX
  8
0
 10
-16.17178325
 20
18.35899272
  0
VERTEX
  8
0
 10
-15.88673803
 20
18.76776811
  0
VERTEX
  8
0
 10
-15.57231972
 20
19.18554492
  0
VERTEX
  8
0
 10
-15.22852833
 20
19.61232316
  0
VERTEX
  8
0
 10
-14.85536386
 20
20.04810283
  0
VERTEX
  8
0
 10
-14.45282630
 20
20.49288393
  0
VERTEX
  8
0
 10
-14.02091567
 20
20.94666645
  0
VERTEX
  8
0
 10
-13.06897516
 20
21.88123579
  0
VERTEX
  8
0
 10
-11.99954232
 20
22.85181084
  0
VERTEX
  8
0
 10
-10.81261715
 20
23.85839160
  0
VERTEX
  8
0
 10
-9.50819966
 20
24.90097807
  0
VERTEX
  8
0
 10
-8.08628985
 20
25.97957026
  0
VERTEX
  8
0
 10
-7.22246858
 20
26.63146317
  0
VERTEX
  8
0
 10
-6.44013392
 20
27.24292860
  0
VERTEX
  8
0
 10
-5.73928588
 20
27.81396658
  0
VERTEX
  8
0
 10
-5.11992445
 20
28.34457708
  0
VERTEX
  8
0
 10
-4.58204964
 20
28.83476012
  0
VERTEX
  8
0
 10
-4.12566144
 20
29.28451569
  0
VERTEX
  8
0
 10
-3.75075985
 20
29.69384379
  0
VERTEX
  8
0
 10
-3.45734487
 20
30.06274443
  0
VERTEX
  8
0
 10
-3.22046518
 20
30.40922046
  0
VERTEX
  8
0
 10
-3.01516945
 20
30.75127473
  0
VERTEX
  8
0
 10
-2.84145768
 20
31.08890724
  0
VERTEX
  8
0
 10
-2.69932986
 20
31.42211801
  0
VERTEX
  8
0
 10
-2.58878601
 20
31.75090702
  0
VERTEX
  8
0
 10
-2.50982611
 20
32.07527427
  0
VERTEX
  8
0
 10
-2.46245017
 20
32.39521977
  0
VERTEX
  8
0
 10
-2.44665820
 20
32.71074352
  0
VERTEX
  8
0
 10
-2.46245017
 20
33.04300676
  0
VERTEX
  8
0
 10
-2.50982611
 20
33.36263643
  0
VERTEX
  8
0
 10
-2.58878601
 20
33.66963250
  0
VERTEX
  8
0
 10
-2.69932986
 20
33.96399500
  0
VERTEX
  8
0
 10
-2.84145768
 20
34.24572391
  0
VERTEX
  8
0
 10
-3.01516945
 20
34.51481924
  0
VERTEX
  8
0
 10
-3.22046518
 20
34.77128098
  0
VERTEX
  8
0
 10
-3.45734487
 20
35.01510914
  0
VERTEX
  8
0
 10
-3.71317494
 20
35.24251364
  0
VERTEX
  8
0
 10
-3.98542866
 20
35.43959754
  0
VERTEX
  8
0
 10
-4.27410604
 20
35.60636085
  0
VERTEX
  8
0
 10
-4.57920708
 20
35.74280355
  0
VERTEX
  8
0
 10
-4.90073178
 20
35.84892565
  0
VERTEX
  8
0
 10
-5.23868014
 20
35.92472715
  0
VERTEX
  8
0
 10
-5.59305215
 20
35.97020805
  0
VERTEX
  8
0
 10
-5.96384783
 20
35.98536835
  0
VERTEX
  8
0
 10
-6.34917212
 20
35.96989221
  0
VERTEX
  8
0
 10
-6.71680940
 20
35.92346379
  0
VERTEX
  8
0
 10
-7.06675966
 20
35.84608309
  0
VERTEX
  8
0
 10
-7.39902291
 20
35.73775011
  0
VERTEX
  8
0
 10
-7.71359913
 20
35.59846486
  0
VERTEX
  8
0
 10
-8.01048835
 20
35.42822732
  0
VERTEX
  8
0
 10
-8.28969054
 20
35.22703750
  0
VERTEX
  8
0
 10
-8.55120572
 20
34.99489541
  0
VERTEX
  8
0
 10
-8.78871709
 20
34.72358920
  0
VERTEX
  8
0
 10
-9.00601472
 20
34.40490706
  0
VERTEX
  8
0
 10
-9.20309862
 20
34.03884898
  0
VERTEX
  8
0
 10
-9.37996879
 20
33.62541496
  0
VERTEX
  8
0
 10
-9.53662523
 20
33.16460501
  0
VERTEX
  8
0
 10
-9.67306793
 20
32.65641911
  0
VERTEX
  8
0
 10
-9.78929689
 20
32.10085728
  0
VERTEX
  8
0
 10
-9.88531213
 20
31.49791951
  0
VERTEX
  8
0
 10
-18.13251540
 20
32.16497271
  0
VERTEX
  8
0
 10
-17.99859942
 20
33.01015945
  0
VERTEX
  8
0
 10
-17.83941627
 20
33.80733856
  0
VERTEX
  8
0
 10
-17.65496595
 20
34.55651006
  0
VERTEX
  8
0
 10
-17.44524846
 20
35.25767394
  0
VERTEX
  8
0
 10
-17.21026381
 20
35.91083021
  0
VERTEX
  8
0
 10
-16.95001199
 20
36.51597885
  0
VERTEX
  8
0
 10
-16.66449301
 20
37.07311988
  0
VERTEX
  8
0
 10
-16.35370685
 20
37.58225330
  0
VERTEX
  8
0
 10
-16.01386346
 20
38.05790771
  0
VERTEX
  8
0
 10
-15.64117275
 20
38.50450489
  0
VERTEX
  8
0
 10
-15.23563472
 20
38.92204482
  0
VERTEX
  8
0
 10
-14.79724937
 20
39.31052751
  0
VERTEX
  8
0
 10
-14.32601671
 20
39.66995296
  0
VERTEX
  8
0
 10
-13.82193673
 20
40.00032117
  0
VERTEX
  8
0
 10
-13.28500943
 20
40.30163213
  0
VERTEX
  8
0
 10
-12.71523482
 20
40.57388586
  0
VERTEX
  8
0
 10
-12.09587339
 20
40.82024073
  0
VERTEX
  8
0
 10
-11.42029252
 20
41.03374829
  0
VERTEX
  8
0
 10
-10.68849220
 20
41.21440854
  0
VERTEX
  8
0
 10
-9.90047243
 20
41.36222146
  0
VERTEX
  8
0
 10
-9.05623321
 20
41.47718707
  0
VERTEX
  8
0
 10
-8.15577455
 20
41.55930537
  0
VERTEX
  8
0
 10
-7.19909645
 20
41.60857634
  0
VERTEX
  8
0
 10
-6.18619890
 20
41.62500000
  0
VERTEX
  8
0
 10
-5.13003132
 20
41.60952386
  0
VERTEX
  8
0
 10
-4.13450494
 20
41.56309544
  0
VERTEX
  8
0
 10
-3.19961977
 20
41.48571474
  0
VERTEX
  8
0
 10
-2.32537579
 20
41.37738176
  0
VERTEX
  8
0
 10
-1.51177302
 20
41.23809651
  0
VERTEX
  8
0
 10
-0.75881145
 20
41.06785897
  0
VERTEX
  8
0
 10
-0.06649107
 20
40.86666915
  0
VERTEX
  8
0
 10
0.56518810
 20
40.63452706
  0
VERTEX
  8
0
 10
1.15517645
 20
40.37016932
  0
VERTEX
  8
0
 10
1.71231748
 20
40.07233259
  0
VERTEX
  8
0
 10
2.23661119
 20
39.74101687
  0
VERTEX
  8
0
 10
2.72805758
 20
39.37622215
  0
VERTEX
  8
0
 10
3.18665666
 20
38.97794843
  0
VERTEX
  8
0
 10
3.61240843
 20
38.54619571
  0
VERTEX
  8
0
 10
4.00531287
 20
38.08096400
  0
VERTEX
  8
0
 10
4.36537000
 20
37.58225330
  0
VERTEX
  8
0
 10
4.69226397
 20
37.06396054
  0
VERTEX
  8
0
 10
4.97557208
 20
36.52987580
  0
VERTEX
  8
0
 10
5.21529433
 20
35.97999908
  0
VERTEX
  8
0
 10
5.41143071
 20
35.41433038
  0
VERTEX
  8
0
 10
5.56398123
 20
34.83286970
  0
VERTEX
  8
0
 10
5.67294589
 20
34.23561704
  0
VERTEX
  8
0
 10
5.73832468
 20
33.62257241
  0
VERTEX
  8
0
 10
5.76011761
 20
32.99373579
  0
VERTEX
  8
0
 10
5.73516628
 20
32.32036579
  0
VERTEX
  8
0
 10
5.66031230
 20
31.65457594
  0
VERTEX
  8
0
 10
5.53555567
 20
30.99636625
  0
VERTEX
  8
0
 10
5.36089638
 20
30.34573670
  0
VERTEX
  8
0
 10
5.13633443
 20
29.70268730
  0
VERTEX
  8
0
 10
4.86186983
 20
29.06721805
  0
VERTEX
  8
0
 10
4.53750257
 20
28.43932896
  0
VERTEX
  8
0
 10
4.16323266
 20
27.81902001
  0
VERTEX
  8
0
 10
3.72832155
 20
27.19492099
  0
VERTEX
  8
0
 10
3.21192383
 20
26.55566166
  0
VERTEX
  8
0
 10
2.61403949
 20
25.90124204
  0
VERTEX
  8
0
 10
1.93466854
 20
25.23166212
  0
VERTEX
  8
0
 10
1.17381098
 20
24.54692190
  0
VERTEX
  8
0
 10
0.33146680
 20
23.84702137
  0
VERTEX
  8
0
 10
-0.59236398
 20
23.13196055
  0
VERTEX
  8
0
 10
-1.59768139
 20
22.40173943
  0
VERTEX
  8
0
 10
-3.67464251
 20
20.94129718
  0
VERTEX
  8
0
 10
-4.40612699
 20
20.40436988
  0
VERTEX
  8
0
 10
-4.93294742
 20
19.99630514
  0
VERTEX
  8
0
 10
-5.83751199
 20
19.20291610
  0
VERTEX
  8
0
 10
-6.89367957
 20
18.19728286
  0
VERTEX
  8
0
 10
5.96225495
 20
18.19728286
  0
VERTEX
  8
0
 10
5.96225495
 20
11.48632333
  0
SEQEND
  0
POLYLINE
  8
Default_Layer
 66
   1
 39
0.000000
 70
    1
  0
VERTEX
  8
0
 10
19.77144032
 20
32.54903365
  0
VERTEX
  8
0
 10
11.98915291
 20
33.94378126
  0
VERTEX
  8
0
 10
12.11738379
 20
34.40190658
  0
VERTEX
  8
0
 10
12.25951160
 20
34.84645080
  0
VERTEX
  8
0
 10
12.41553636
 20
35.27741392
  0
VERTEX
  8
0
 10
12.58545805
 20
35.69479593
  0
VERTEX
  8
0
 10
12.76927669
 20
36.09859684
  0
VERTEX
  8
0
 10
12.96699227
 20
36.48881665
  0
VERTEX
  8
0
 10
13.17860480
 20
36.86545536
  0
VERTEX
  8
0
 10
13.40411426
 20
37.22851296
  0
VERTEX
  8
0
 10
13.64352067
 20
37.57798946
  0
VERTEX
  8
0
 10
13.89682401
 20
37.91388486
  0
VERTEX
  8
0
 10
14.16402430
 20
38.23619916
  0
VERTEX
  8
0
 10
14.44512154
 20
38.54493236
  0
VERTEX
  8
0
 10
14.74011571
 20
38.84008445
  0
VERTEX
  8
0
 10
15.04900682
 20
39.12165544
  0
VERTEX
  8
0
 10
15.37179488
 20
39.38964533
  0
VERTEX
  8
0
 10
15.70847988
 20
39.64405412
  0
VERTEX
  8
0
 10
16.06356254
 20
39.88393428
  0
VERTEX
  8
0
 10
16.43649013
 20
40.10833831
  0
VERTEX
  8
0
 10
16.82726265
 20
40.31726619
  0
VERTEX
  8
0
 10
17.23588012
 20
40.51071794
  0
VERTEX
  8
0
 10
17.66234252
 20
40.68869355
  0
VERTEX
  8
0
 10
18.10664986
 20
40.85119301
  0
VERTEX
  8
0
 10
18.56880213
 20
40.99821634
  0
VERTEX
  8
0
 10
19.04879934
 20
41.12976353
  0
VERTEX
  8
0
 10
19.54664149
 20
41.24583458
  0
VERTEX
  8
0
 10
20.06232858
 20
41.34642948
  0
VERTEX
  8
0
 10
20.59586060
 20
41.43154825
  0
VERTEX
  8
0
 10
21.14723755
 20
41.50119088
  0
VERTEX
  8
0
 10
21.71645945
 20
41.55535737
  0
VERTEX
  8
0
 10
22.30352628
 20
41.59404772
  0
VERTEX
  8
0
 10
22.90843805
 20
41.61726193
  0
VERTEX
  8
0
 10
23.53119475
 20
41.62500000
  0
VERTEX
  8
0
 10
24.24380782
 20
41.61655129
  0
VERTEX
  8
0
 10
24.93131164
 20
41.59120516
  0
VERTEX
  8
0
 10
25.59370621
 20
41.54896162
  0
VERTEX
  8
0
 10
26.23099153
 20
41.48982066
  0
VERTEX
  8
0
 10
26.84316761
 20
41.41378228
  0
VERTEX
  8
0
 10
27.43023444
 20
41.32084648
  0
VERTEX
  8
0
 10
27.99219203
 20
41.21101326
  0
VERTEX
  8
0
 10
28.52904036
 20
41.08428263
  0
VERTEX
  8
0
 10
29.04077945
 20
40.94065458
  0
VERTEX
  8
0
 10
29.52740929
 20
40.78012911
  0
VERTEX
  8
0
 10
29.98892989
 20
40.60270622
  0
VERTEX
  8
0
 10
30.42534124
 20
40.40838591
  0
VERTEX
  8
0
 10
30.83664334
 20
40.19716819
  0
VERTEX
  8
0
 10
31.22283619
 20
39.96905305
  0
VERTEX
  8
0
 10
31.58391980
 20
39.72404049
  0
VERTEX
  8
0
 10
31.91989416
 20
39.46213051
  0
VERTEX
  8
0
 10
32.23320703
 20
39.18742903
  0
VERTEX
  8
0
 10
32.52630617
 20
38.90404197
  0
VERTEX
  8
0
 10
32.79919157
 20
38.61196931
  0
VERTEX
  8
0
 10
33.05186324
 20
38.31121106
  0
VERTEX
  8
0
 10
33.28432117
 20
38.00176723
  0
VERTEX
  8
0
 10
33.49656537
 20
37.68363780
  0
VERTEX
  8
0
 10
33.68859584
 20
37.35682279
  0
VERTEX
  8
0
 10
33.86041258
 20
37.02132219
  0
VERTEX
  8
0
 10
34.01201558
 20
36.67713600
  0
VERTEX
  8
0
 10
34.14340485
 20
36.32426423
  0
VERTEX
  8
0
 10
34.25458038
 20
35.96270686
  0
VERTEX
  8
0
 10
34.34554218
 20
35.59246390
  0
VERTEX
  8
0
 10
34.41629025
 20
35.21353536
  0
VERTEX
  8
0
 10
34.46682458
 20
34.82592123
  0
VERTEX
  8
0
 10
34.49714518
 20
34.42962151
  0
VERTEX
  8
0
 10
34.50725205
 20
34.02463620
  0
VERTEX
  8
0
 10
34.49082839
 20
33.55024514
  0
VERTEX
  8
0
 10
34.44155742
 20
33.08722431
  0
VERTEX
  8
0
 10
34.35943912
 20
32.63557370
  0
VERTEX
  8
0
 10
34.24447351
 20
32.19529332
  0
VERTEX
  8
0
 10
34.09666059
 20
31.76638316
  0
VERTEX
  8
0
 10
33.91600034
 20
31.34884322
  0
VERTEX
  8
0
 10
33.70249278
 20
30.94267352
  0
VERTEX
  8
0
 10
33.45613791
 20
30.54787403
  0
VERTEX
  8
0
 10
33.17661987
 20
30.16476062
  0
VERTEX
  8
0
 10
32.86362284
 20
29.79364910
  0
VERTEX
  8
0
 10
32.51714682
 20
29.43453949
  0
VERTEX
  8
0
 10
32.13719180
 20
29.08743179
  0
VERTEX
  8
0
 10
31.72375778
 20
28.75232599
  0
VERTEX
  8
0
 10
31.27684476
 20
28.42922209
  0
VERTEX
  8
0
 10
30.79645275
 20
28.11812010
  0
VERTEX
  8
0
 10
30.28258175
 20
27.81902001
  0
VERTEX
  8
0
 10
31.09113109
 20
27.59793230
  0
VERTEX
  8
0
 10
31.79861176
 20
27.35915757
  0
VERTEX
  8
0
 10
32.40502376
 20
27.10269583
  0
VERTEX
  8
0
 10
32.67032902
 20
26.96783232
  0
VERTEX
  8
0
 10
32.91036710
 20
26.82854707
  0
VERTEX
  8
0
 10
33.26884503
 20
26.59198322
  0
VERTEX
  8
0
 10
33.60647755
 20
26.33710067
  0
VERTEX
  8
0
 10
33.92326466
 20
26.06389943
  0
VERTEX
  8
0
 10
34.21920635
 20
25.77237949
  0
VERTEX
  8
0
 10
34.49430263
 20
25.46254086
  0
VERTEX
  8
0
 10
34.74855349
 20
25.13438353
  0
VERTEX
  8
0
 10
34.98195895
 20
24.78790750
  0
VERTEX
  8
0
 10
35.19451899
 20
24.42311278
  0
VERTEX
  8
0
 10
35.38876034
 20
24.04505279
  0
VERTEX
  8
0
 10
35.55710283
 20
23.64867411
  0
VERTEX
  8
0
 10
35.69954649
 20
23.23397674
  0
VERTEX
  8
0
 10
35.81609130
 20
22.80096066
  0
VERTEX
  8
0
 10
35.90673726
 20
22.34962590
  0
VERTEX
  8
0
 10
35.97148437
 20
21.87997243
  0
VERTEX
  8
0
 10
36.01033264
 20
21.39200027
  0
VERTEX
  8
0
 10
36.02328206
 20
20.88570941
  0
VERTEX
  8
0
 10
36.00212081
 20
20.24202834
  0
VERTEX
  8
0
 10
35.93863705
 20
19.60466405
  0
VERTEX
  8
0
 10
35.83283079
 20
18.97361656
  0
VERTEX
  8
0
 10
35.68470203
 20
18.34888586
  0
VERTEX
  8
0
 10
35.49425076
 20
17.73047195
  0
VERTEX
  8
0
 10
35.26147698
 20
17.11837483
  0
VERTEX
  8
0
 10
34.98638070
 20
16.51259450
  0
VERTEX
  8
0
 10
34.66896192
 20
15.91313097
  0
VERTEX
  8
0
 10
34.31174735
 20
15.33861876
  0
VERTEX
  8
0
 10
33.91726370
 20
14.79758555
  0
VERTEX
  8
0
 10
33.48551099
 20
14.29003134
  0
VERTEX
  8
0
 10
33.01648920
 20
13.81595612
  0
VERTEX
  8
0
 10
32.51019835
 20
13.37535989
  0
VERTEX
  8
0
 10
31.96663842
 20
12.96824267
  0
VERTEX
  8
0
 10
31.38580942
 20
12.59460444
  0
VERTEX
  8
0
 10
30.76771135
 20
12.25444520
  0
VERTEX
  8
0
 10
30.10602742
 20
11.95597679
  0
VERTEX
  8
0
 10
29.39444083
 20
11.69730417
  0
VERTEX
  8
0
 10
28.63295159
 20
11.47842734
  0
VERTEX
  8
0
 10
27.82155969
 20
11.29934629
  0
VERTEX
  8
0
 10
26.96026514
 20
11.16006104
  0
VERTEX
  8
0
 10
26.04906793
 20
11.06057157
  0
VERTEX
  8
0
 10
25.08796807
 20
11.00087788
  0
VERTEX
  8
0
 10
24.07696556
 20
10.98097999
  0
VERTEX
  8
0
 10
23.09280941
 20
10.99582445
  0
VERTEX
  8
0
 10
22.16171431
 20
11.04035783
  0
VERTEX
  8
0
 10
21.28368026
 20
11.11458014
  0
VERTEX
  8
0
 10
20.45870726
 20
11.21849136
  0
VERTEX
  8
0
 10
19.68679531
 20
11.35209150
  0
VERTEX
  8
0
 10
18.96794441
 20
11.51538057
  0
VERTEX
  8
0
 10
18.30215456
 20
11.70835856
  0
VERTEX
  8
0
 10
17.68942577
 20
11.93102547
  0
VERTEX
  8
0
 10
17.12091451
 20
12.18211794
  0
VERTEX
  8
0
 10
16.57767042
 20
12.46037261
  0
VERTEX
  8
0
 10
16.05969350
 20
12.76578949
  0
VERTEX
  8
0
 10
15.56698375
 20
13.09836858
  0
VERTEX
  8
0
 10
15.09954116
 20
13.45810987
  0
VERTEX
  8
0
 10
14.65736574
 20
13.84501336
  0
VERTEX
  8
0
 10
14.24045748
 20
14.25907906
  0
VERTEX
  8
0
 10
13.84881640
 20
14.70030696
  0
VERTEX
  8
0
 10
13.48560087
 20
15.17469802
  0
VERTEX
  8
0
 10
13.14386244
 20
15.67814632
  0
VERTEX
  8
0
 10
12.82360110
 20
16.21065186
  0
VERTEX
  8
0
 10
12.52481685
 20
16.77221464
  0
VERTEX
  8
0
 10
12.24750970
 20
17.36283467
  0
VERTEX
  8
0
 10
11.99167963
 20
17.98251194
  0
VERTEX
  8
0
 10
11.75732666
 20
18.63124645
  0
VERTEX
  8
0
 10
11.54445078
 20
19.30903820
  0
VERTEX
  8
0
 10
19.77144032
 20
20.40057981
  0
VERTEX
  8
0
 10
19.90093455
 20
19.80269547
  0
VERTEX
  8
0
 10
20.04685244
 20
19.25218707
  0
VERTEX
  8
0
 10
20.20919398
 20
18.74905461
  0
VERTEX
  8
0
 10
20.38795919
 20
18.29329809
  0
VERTEX
  8
0
 10
20.58314805
 20
17.88491751
  0
VERTEX
  8
0
 10
20.79476058
 20
17.52391286
  0
VERTEX
  8
0
 10
21.02279676
 20
17.21028415
  0
VERTEX
  8
0
 10
21.26725660
 20
16.94403138
  0
VERTEX
  8
0
 10
21.53350937
 20
16.72136447
  0
VERTEX
  8
0
 10
21.81681748
 20
16.52838648
  0
VERTEX
  8
0
 10
22.11718092
 20
16.36509742
  0
VERTEX
  8
0
 10
22.43459971
 20
16.23149727
  0
VERTEX
  8
0
 10
22.76907383
 20
16.12758605
  0
VERTEX
  8
0
 10
23.12060329
 20
16.05336374
  0
VERTEX
  8
0
 10
23.48918809
 20
16.00883036
  0
VERTEX
  8
0
 10
23.87482822
 20
15.99398590
  0
VERTEX
  8
0
 10
24.28036625
 20
16.01293628
  0
VERTEX
  8
0
 10
24.66821726
 20
16.06978740
  0
VERTEX
  8
0
 10
25.03838126
 20
16.16453928
  0
VERTEX
  8
0
 10
25.39085823
 20
16.29719191
  0
VERTEX
  8
0
 10
25.72564820
 20
16.46774528
  0
VERTEX
  8
0
 10
26.04275114
 20
16.67619941
  0
VERTEX
  8
0
 10
26.34216707
 20
16.92255429
  0
VERTEX
  8
0
 10
26.62389598
 20
17.20680991
  0
VERTEX
  8
0
 10
26.88446364
 20
17.52264950
  0
VERTEX
  8
0
 10
27.11028894
 20
17.86375625
  0
VERTEX
  8
0
 10
27.30137189
 20
18.23013017
  0
VERTEX
  8
0
 10
27.45771249
 20
18.62177126
  0
VERTEX
  8
0
 10
27.57931073
 20
19.03867951
  0
VERTEX
  8
0
 10
27.66616661
 20
19.48085493
  0
VERTEX
  8
0
 10
27.71828015
 20
19.94829752
  0
VERTEX
  8
0
 10
27.73565132
 20
20.44100728
  0
VERTEX
  8
0
 10
27.71891182
 20
20.94192886
  0
VERTEX
  8
0
 10
27.66869333
 20
21.41379320
  0
VERTEX
  8
0
 10
27.58499584
 20
21.85660030
  0
VERTEX
  8
0
 10
27.46781935
 20
22.27035016
  0
VERTEX
  8
0
 10
27.31716387
 20
22.65504278
  0
VERTEX
  8
0
 10
27.13302939
 20
23.01067815
  0
VERTEX
  8
0
 10
26.91541592
 20
23.33725628
  0
VERTEX
  8
0
 10
26.66432345
 20
23.63477717
  0
VERTEX
  8
0
 10
26.38954301
 20
23.90008242
  0
VERTEX
  8
0
 10
26.09075876
 20
24.13001364
  0
VERTEX
  8
0
 10
25.76797070
 20
24.32457083
  0
VERTEX
  8
0
 10
25.42117883
 20
24.48375398
  0
VERTEX
  8
0
 10
25.05038316
 20
24.60756310
  0
VERTEX
  8
0
 10
24.65558368
 20
24.69599818
  0
VERTEX
  8
0
 10
24.23678039
 20
24.74905923
  0
VERTEX
  8
0
 10
23.79397329
 20
24.76674625
  0
VERTEX
  8
0
 10
23.26336278
 20
24.73642565
  0
VERTEX
  8
0
 10
22.64179048
 20
24.64546385
  0
VERTEX
  8
0
 10
21.92925637
 20
24.49386085
  0
VERTEX
  8
0
 10
21.12576046
 20
24.28161664
  0
VERTEX
  8
0
 10
21.55024887
 20
30.16381310
  0
VERTEX
  8
0
 10
22.16171431
 20
30.08801160
  0
VERTEX
  8
0
 10
22.62157674
 20
30.06274443
  0
VERTEX
  8
0
 10
23.01732374
 20
30.07885225
  0
VERTEX
  8
0
 10
23.39601541
 20
30.12717570
  0
VERTEX
  8
0
 10
23.75765173
 20
30.20771480
  0
VERTEX
  8
0
 10
24.10223272
 20
30.32046953
  0
VERTEX
  8
0
 10
24.42975837
 20
30.46543990
  0
VERTEX
  8
0
 10
24.74022869
 20
30.64262591
  0
VERTEX
  8
0
 10
25.03364366
 20
30.85202756
  0
VERTEX
  8
0
 10
25.31000330
 20
31.09364484
  0
VERTEX
  8
0
 10
25.56583337
 20
31.35737089
  0
VERTEX
  8
0
 10
25.78755275
 20
31.63309885
  0
VERTEX
  8
0
 10
25.97516147
 20
31.92082871
  0
VERTEX
  8
0
 10
26.12865951
 20
32.22056048
  0
VERTEX
  8
0
 10
26.24804687
 20
32.53229415
  0
VERTEX
  8
0
 10
26.33332356
 20
32.85602973
  0
VERTEX
  8
0
 10
26.38448957
 20
33.19176721
  0
VERTEX
  8
0
 10
26.40154491
 20
33.53950659
  0
VERTEX
  8
0
 10
26.38891133
 20
33.86955896
  0
VERTEX
  8
0
 10
26.35101058
 20
34.18255599
  0
VERTEX
  8
0
 10
26.28784266
 20
34.47849768
  0
VERTEX
  8
0
 10
26.19940758
 20
34.75738404
  0
VERTEX
  8
0
 10
26.08570532
 20
35.01921506
  0
VERTEX
  8
0
 10
25.94673591
 20
35.26399073
  0
VERTEX
  8
0
 10
25.78249932
 20
35.49171108
  0
VERTEX
  8
0
 10
25.59299557
 20
35.70237608
  0
VERTEX
  8
0
 10
25.38138305
 20
35.89187983
  0
VERTEX
  8
0
 10
25.15082015
 20
36.05611642
  0
VERTEX
  8
0
 10
24.90130688
 20
36.19508583
  0
VERTEX
  8
0
 10
24.63284323
 20
36.30878809
  0
VERTEX
  8
0
 10
24.34542920
 20
36.39722317
  0
VERTEX
  8
0
 10
24.03906481
 20
36.46039109
  0
VERTEX
  8
0
 10
23.71375003
 20
36.49829184
  0
VERTEX
  8
0
 10
23.36948488
 20
36.51092542
  0
VERTEX
  8
0
 10
23.01416535
 20
36.49702848
  0
VERTEX
  8
0
 10
22.67590115
 20
36.45533765
  0
VERTEX
  8
0
 10
22.35469229
 20
36.38585294
  0
VERTEX
  8
0
 10
22.05053877
 20
36.28857435
  0
VERTEX
  8
0
 10
21.76344059
 20
36.16350188
  0
VERTEX
  8
0
 10
21.49339774
 20
36.01063552
  0
VERTEX
  8
0
 10
21.24041023
 20
35.82997527
  0
VERTEX
  8
0
 10
21.00447806
 20
35.62152115
  0
VERTEX
  8
0
 10
20.78623291
 20
35.38337810
  0
VERTEX
  8
0
 10
20.58630645
 20
35.10354422
  0
VERTEX
  8
0
 10
20.40469869
 20
34.78201953
  0
VERTEX
  8
0
 10
20.24140962
 20
34.41880400
  0
VERTEX
  8
0
 10
20.09643925
 20
34.01389765
  0
VERTEX
  8
0
 10
19.96978758
 20
33.56730048
  0
VERTEX
  8
0
 10
19.86145460
 20
33.07901248
  0
VERTEX
  8
0
 10
19.77144032
 20
32.54903365
  0
SEQEND
  0
POLYLINE
  8
Default_Layer
 66
   1
 39
0.000000
 70
    1
  0
VERTEX
  8
0
 10
55.85616002
 20
17.02488631
  0
VERTEX
  8
0
 10
40.85756975
 20
17.02488631
  0
VERTEX
  8
0
 10
40.85756975
 20
23.79648704
  0
VERTEX
  8
0
 10
55.85616002
 20
41.62500000
  0
VERTEX
  8
0
 10
63.03203542
 20
41.62500000
  0
VERTEX
  8
0
 10
63.03203542
 20
23.41242610
  0
VERTEX
  8
0
 10
66.75136239
 20
23.41242610
  0
VERTEX
  8
0
 10
66.75136239
 20
17.02488631
  0
VERTEX
  8
0
 10
63.03203542
 20
17.02488631
  0
VERTEX
  8
0
 10
63.03203542
 20
11.48632333
  0
VERTEX
  8
0
 10
55.85616002
 20
11.48632333
  0
VERTEX
  8
0
 10
55.85616002
 20
17.02488631
  0
SEQEND
  0
POLYLINE
  8
Default_Layer
 66
   1
 39
0.000000
 70
    1
  0
VERTEX
  8
0
 10
55.85616002
 20
23.41242610
  0
VERTEX
  8
0
 10
55.85616002
 20
32.73822156
  0
VERTEX
  8
0
 10
47.93111313
 20
23.41242610
  0
VERTEX
  8
0
 10
55.85616002
 20
23.41242610
  0
SEQEND
  0
POLYLINE
  8
Default_Layer
 66
   1
 39
0.000000
 70
    1
  0
VERTEX
  8
0
 10
74.96134357
 20
41.11965666
  0
VERTEX
  8
0
 10
94.50802388
 20
41.11965666
  0
VERTEX
  8
0
 10
94.50802388
 20
34.55019327
  0
VERTEX
  8
0
 10
81.26802843
 20
34.55019327
  0
VERTEX
  8
0
 10
80.56054776
 20
30.10317190
  0
VERTEX
  8
0
 10
81.24528798
 20
30.40637790
  0
VERTEX
  8
0
 10
81.92497477
 20
30.66915643
  0
VERTEX
  8
0
 10
82.59960812
 20
30.89150750
  0
VERTEX
  8
0
 10
83.26918805
 20
31.07343111
  0
VERTEX
  8
0
 10
83.94382140
 20
31.21492724
  0
VERTEX
  8
0
 10
84.61340133
 20
31.31599591
  0
VERTEX
  8
0
 10
85.27792782
 20
31.37663711
  0
VERTEX
  8
0
 10
85.93740087
 20
31.39685084
  0
VERTEX
  8
0
 10
86.48672487
 20
31.38634918
  0
VERTEX
  8
0
 10
87.02294153
 20
31.35484418
  0
VERTEX
  8
0
 10
87.54605084
 20
31.30233585
  0
VERTEX
  8
0
 10
88.05605282
 20
31.22882418
  0
VERTEX
  8
0
 10
88.55294744
 20
31.13430919
  0
VERTEX
  8
0
 10
89.03673473
 20
31.01879086
  0
VERTEX
  8
0
 10
89.50741467
 20
30.88226920
  0
VERTEX
  8
0
 10
89.96498727
 20
30.72474420
  0
VERTEX
  8
0
 10
90.40945253
 20
30.54621588
  0
VERTEX
  8
0
 10
90.84081045
 20
30.34668422
  0
VERTEX
  8
0
 10
91.25906102
 20
30.12614923
  0
VERTEX
  8
0
 10
91.66420425
 20
29.88461090
  0
VERTEX
  8
0
 10
92.05624013
 20
29.62206925
  0
VERTEX
  8
0
 10
92.43516868
 20
29.33852426
  0
VERTEX
  8
0
 10
92.80098988
 20
29.03397594
  0
VERTEX
  8
0
 10
93.15370374
 20
28.70842428
  0
VERTEX
  8
0
 10
93.48904642
 20
28.36692273
  0
VERTEX
  8
0
 10
93.80275409
 20
28.01452471
  0
VERTEX
  8
0
 10
94.09482674
 20
27.65123023
  0
VERTEX
  8
0
 10
94.36526439
 20
27.27703928
  0
VERTEX
  8
0
 10
94.61406702
 20
26.89195186
  0
VERTEX
  8
0
 10
94.84123465
 20
26.49596798
  0
VERTEX
  8
0
 10
95.04676726
 20
26.08908764
  0
VERTEX
  8
0
 10
95.23066485
 20
25.67131082
  0
VERTEX
  8
0
 10
95.39292744
 20
25.24263754
  0
VERTEX
  8
0
 10
95.53355502
 20
24.80306780
  0
VERTEX
  8
0
 10
95.65254758
 20
24.35260159
  0
VERTEX
  8
0
 10
95.74990513
 20
23.89123892
  0
VERTEX
  8
0
 10
95.82562768
 20
23.41897977
  0
VERTEX
  8
0
 10
95.87971520
 20
22.93582417
  0
VERTEX
  8
0
 10
95.91216772
 20
22.44177209
  0
VERTEX
  8
0
 10
95.92298523
 20
21.93682356
  0
VERTEX
  8
0
 10
95.90056062
 20
21.22271025
  0
VERTEX
  8
0
 10
95.83328679
 20
20.51554542
  0
VERTEX
  8
0
 10
95.72116373
 20
19.81532906
  0
VERTEX
  8
0
 10
95.56419146
 20
19.12206116
  0
VERTEX
  8
0
 10
95.36236996
 20
18.43574174
  0
VERTEX
  8
0
 10
95.11569925
 20
17.75637079
  0
VERTEX
  8
0
 10
94.82417931
 20
17.08394831
  0
VERTEX
  8
0
 10
94.48781015
 20
16.41847431
  0
VERTEX
  8
0
 10
94.11511944
 20
15.77605659
  0
VERTEX
  8
0
 10
93.70452797
 20
15.17280298
  0
VERTEX
  8
0
 10
93.25603576
 20
14.60871348
  0
VERTEX
  8
0
 10
92.76964280
 20
14.08378809
  0
VERTEX
  8
0
 10
92.24534909
 20
13.59802680
  0
VERTEX
  8
0
 10
91.68315462
 20
13.15142963
  0
VERTEX
  8
0
 10
91.08305941
 20
12.74399656
  0
VERTEX
  8
0
 10
90.44506345
 20
12.37572760
  0
VERTEX
  8
0
 10
89.77011425
 20
12.04883363
  0
VERTEX
  8
0
 10
89.04905247
 20
11.76552552
  0
VERTEX
  8
0
 10
88.28187812
 20
11.52580328
  0
VERTEX
  8
0
 10
87.46859119
 20
11.32966689
  0
VERTEX
  8
0
 10
86.60919167
 20
11.17711637
  0
VERTEX
  8
0
 10
85.70367958
 20
11.06815172
  0
VERTEX
  8
0
 10
84.75205490
 20
11.00277292
  0
VERTEX
  8
0
 10
83.75431765
 20
10.98097999
  0
VERTEX
  8
0
 10
83.03451923
 20
10.98950766
  0
VERTEX
  8
0
 10
82.34061966
 20
11.01509067
  0
VERTEX
  8
0
 10
81.67261894
 20
11.05772901
  0
VERTEX
  8
0
 10
81.03051706
 20
11.11742269
  0
VERTEX
  8
0
 10
80.41431403
 20
11.19417171
  0
VERTEX
  8
0
 10
79.82400984
 20
11.28797607
  0
VERTEX
  8
0
 10
79.25960450
 20
11.39883576
  0
VERTEX
  8
0
 10
78.72109801
 20
11.52675080
  0
VERTEX
  8
0
 10
78.21006956
 20
11.67645876
  0
VERTEX
  8
0
 10
77.71799148
 20
11.84259038
  0
VERTEX
  8
0
 10
77.24486378
 20
12.02514566
  0
VERTEX
  8
0
 10
76.79068646
 20
12.22412460
  0
VERTEX
  8
0
 10
76.35545951
 20
12.43952720
  0
VERTEX
  8
0
 10
75.93918293
 20
12.67135346
  0
VERTEX
  8
0
 10
75.54185673
 20
12.91960337
  0
VERTEX
  8
0
 10
75.16348091
 20
13.18427694
  0
VERTEX
  8
0
 10
74.80816137
 20
13.46663753
  0
VERTEX
  8
0
 10
74.46989718
 20
13.75784163
  0
VERTEX
  8
0
 10
74.14868832
 20
14.05788924
  0
VERTEX
  8
0
 10
73.84453480
 20
14.36678035
  0
VERTEX
  8
0
 10
73.55743661
 20
14.68451498
  0
VERTEX
  8
0
 10
73.28739377
 20
15.01109311
  0
VERTEX
  8
0
 10
73.03440626
 20
15.34651475
  0
VERTEX
  8
0
 10
72.79847409
 20
15.69077990
  0
VERTEX
  8
0
 10
72.57580718
 20
16.05020535
  0
VERTEX
  8
0
 10
72.36261546
 20
16.43110789
  0
VERTEX
  8
0
 10
72.15889892
 20
16.83348752
  0
VERTEX
  8
0
 10
71.96465758
 20
17.25734425
  0
VERTEX
  8
0
 10
71.77989142
 20
17.70267806
  0
VERTEX
  8
0
 10
71.60460045
 20
18.16948897
  0
VERTEX
  8
0
 10
71.43878467
 20
18.65777697
  0
VERTEX
  8
0
 10
71.28244407
 20
19.16754206
  0
VERTEX
  8
0
 10
79.61050228
 20
20.07716007
  0
VERTEX
  8
0
 10
79.69893737
 20
19.59171463
  0
VERTEX
  8
0
 10
79.81263962
 20
19.13595811
  0
VERTEX
  8
0
 10
79.95160903
 20
18.70989050
  0
VERTEX
  8
0
 10
80.11584562
 20
18.31351182
  0
VERTEX
  8
0
 10
80.30534937
 20
17.94682206
  0
VERTEX
  8
0
 10
80.52012029
 20
17.60982123
  0
VERTEX
  8
0
 10
80.76015837
 20
17.30250931
  0
VERTEX
  8
0
 10
81.02546363
 20
17.02488631
  0
VERTEX
  8
0
 10
81.31003509
 20
16.78326903
  0
VERTEX
  8
0
 10
81.60787182
 20
16.57386738
  0
VERTEX
  8
0
 10
81.91897382
 20
16.39668138
  0
VERTEX
  8
0
 10
82.24334107
 20
16.25171101
  0
VERTEX
  8
0
 10
82.58097359
 20
16.13895627
  0
VERTEX
  8
0
 10
82.93187137
 20
16.05841718
  0
VERTEX
  8
0
 10
83.29603441
 20
16.01009372
  0
VERTEX
  8
0
 10
83.67346272
 20
15.99398590
  0
VERTEX
  8
0
 10
84.09352937
 20
16.01419964
  0
VERTEX
  8
0
 10
84.49464564
 20
16.07484084
  0
VERTEX
  8
0
 10
84.87681154
 20
16.17590950
  0
VERTEX
  8
0
 10
85.24002707
 20
16.31740564
  0
VERTEX
  8
0
 10
85.58429221
 20
16.49932924
  0
VERTEX
  8
0
 10
85.90960699
 20
16.72168031
  0
VERTEX
  8
0
 10
86.21597139
 20
16.98445884
  0
VERTEX
  8
0
 10
86.50338541
 20
17.28766485
  0
VERTEX
  8
0
 10
86.76869066
 20
17.63603591
  0
VERTEX
  8
0
 10
86.99862188
 20
18.02420276
  0
VERTEX
  8
0
 10
87.19317907
 20
18.45216540
  0
VERTEX
  8
0
 10
87.35236222
 20
18.91992383
  0
VERTEX
  8
0
 10
87.47617134
 20
19.42747804
  0
VERTEX
  8
0
 10
87.56460642
 20
19.97482805
  0
VERTEX
  8
0
 10
87.61766747
 20
20.56197384
  0
VERTEX
  8
0
 10
87.63535449
 20
21.18891542
  0
VERTEX
  8
0
 10
87.61766747
 20
21.82880642
  0
VERTEX
  8
0
 10
87.56460642
 20
22.42447988
  0
VERTEX
  8
0
 10
87.47617134
 20
22.97593579
  0
VERTEX
  8
0
 10
87.35236222
 20
23.48317417
  0
VERTEX
  8
0
 10
87.19317907
 20
23.94619500
  0
VERTEX
  8
0
 10
86.99862188
 20
24.36499829
  0
VERTEX
  8
0
 10
86.76869066
 20
24.73958404
  0
VERTEX
  8
0
 10
86.50338541
 20
25.06995225
  0
VERTEX
  8
0
 10
86.20870708
 20
25.35894547
  0
VERTEX
  8
0
 10
85.89065661
 20
25.60940626
  0
VERTEX
  8
0
 10
85.54923402
 20
25.82133463
  0
VERTEX
  8
0
 10
85.18443930
 20
25.99473056
  0
VERTEX
  8
0
 10
84.79627245
 20
26.12959406
  0
VERTEX
  8
0
 10
84.38473347
 20
26.22592514
  0
VERTEX
  8
0
 10
83.94982236
 20
26.28372378
  0
VERTEX
  8
0
 10
83.49153912
 20
26.30299000
  0
VERTEX
  8
0
 10
83.19464990
 20
26.29383065
  0
VERTEX
  8
0
 10
82.90028741
 20
26.26635260
  0
VERTEX
  8
0
 10
82.60845163
 20
26.22055586
  0
VERTEX
  8
0
 10
82.31914257
 20
26.15644043
  0
VERTEX
  8
0
 10
82.03236023
 20
26.07400630
  0
VERTEX
  8
0
 10
81.74810460
 20
25.97325347
  0
VERTEX
  8
0
 10
81.46637569
 20
25.85418194
  0
VERTEX
  8
0
 10
81.18717350
 20
25.71679172
  0
VERTEX
  8
0
 10
80.97745601
 20
25.59993108
  0
VERTEX
  8
0
 10
80.76268509
 20
25.46159334
  0
VERTEX
  8
0
 10
80.31798295
 20
25.12048658
  0
VERTEX
  8
0
 10
79.85306708
 20
24.69347146
  0
VERTEX
  8
0
 10
79.36793748
 20
24.18054798
  0
VERTEX
  8
0
 10
72.35377195
 20
25.19123465
  0
VERTEX
  8
0
 10
74.96134357
 20
41.11965666
  0
SEQEND
  0
ENDSEC
  0
EOF
