  0
SECTION
  2
HEADER
  9
$ACADVER
  1
AC1009
  9
$EXTMIN
 10
14.12569350
 20
10.62800705
 30
0.0
  9
$EXTMAX
 10
31.10522965
 20
40.76668372
 30
0.0
  0
ENDSEC
  0
SECTION
  2
TABLES
  0
TABLE
  2
LAYER
 70
1
 0
LAYER
 2
Default_Layer
 70
0
 62
1
 6
CONTINUOUS
 0
ENDTAB
 0
ENDSEC
  0
SECTION
  2
ENTITIES
  0
POLYLINE
  8
Default_Layer
 66
   1
 39
0.000000
 70
    1
  0
VERTEX
  8
0
 10
31.10522965
 20
40.76668372
  0
VERTEX
  8
0
 10
31.10522965
 20
10.62800705
  0
VERTEX
  8
0
 10
22.77717144
 20
10.62800705
  0
VERTEX
  8
0
 10
22.77717144
 20
30.37682469
  0
VERTEX
  8
0
 10
21.77406492
 20
29.64534021
  0
VERTEX
  8
0
 10
20.78611869
 20
28.98713051
  0
VERTEX
  8
0
 10
19.81333276
 20
28.40219560
  0
VERTEX
  8
0
 10
18.85570714
 20
27.89053547
  0
VERTEX
  8
0
 10
18.37057754
 20
27.65428746
  0
VERTEX
  8
0
 10
17.85512733
 20
27.42056617
  0
VERTEX
  8
0
 10
16.73326512
 20
26.96070373
  0
VERTEX
  8
0
 10
15.49012051
 20
26.51094816
  0
VERTEX
  8
0
 10
14.12569350
 20
26.07129945
  0
VERTEX
  8
0
 10
14.12569350
 20
32.82268645
  0
VERTEX
  8
0
 10
15.14743456
 20
33.16979415
  0
VERTEX
  8
0
 10
16.11042946
 20
33.53395720
  0
VERTEX
  8
0
 10
17.01467819
 20
33.91517558
  0
VERTEX
  8
0
 10
17.86018076
 20
34.31344930
  0
VERTEX
  8
0
 10
18.64693717
 20
34.72877835
  0
VERTEX
  8
0
 10
19.37494742
 20
35.16116274
  0
VERTEX
  8
0
 10
20.04421150
 20
35.61060248
  0
VERTEX
  8
0
 10
20.65472942
 20
36.07709754
  0
VERTEX
  8
0
 10
21.22008228
 20
36.56601722
  0
VERTEX
  8
0
 10
21.75385118
 20
37.08273079
  0
VERTEX
  8
0
 10
22.25603612
 20
37.62723823
  0
VERTEX
  8
0
 10
22.72663711
 20
38.19953956
  0
VERTEX
  8
0
 10
23.16565413
 20
38.79963478
  0
VERTEX
  8
0
 10
23.57308720
 20
39.42752387
  0
VERTEX
  8
0
 10
23.94893631
 20
40.08320686
  0
VERTEX
  8
0
 10
24.29320146
 20
40.76668372
  0
VERTEX
  8
0
 10
31.10522965
 20
40.76668372
  0
SEQEND
  0
ENDSEC
  0
EOF
