  0
SECTION
  2
HEADER
  9
$ACADVER
  1
AC1009
  9
$EXTMIN
 10
12.10432015
 20
9.93516371
 30
0.0
  9
$EXTMAX
 10
36.74486130
 20
40.07384038
 30
0.0
  0
ENDSEC
  0
SECTION
  2
TABLES
  0
TABLE
  2
LAYER
 70
1
 0
LAYER
 2
Default_Layer
 70
0
 62
1
 6
CONTINUOUS
 0
ENDTAB
 0
ENDSEC
  0
SECTION
  2
ENTITIES
  0
POLYLINE
  8
Default_Layer
 66
   1
 39
0.000000
 70
    1
  0
VERTEX
  8
0
 10
15.78321965
 20
40.07384038
  0
VERTEX
  8
0
 10
35.32989995
 20
40.07384038
  0
VERTEX
  8
0
 10
35.32989995
 20
33.50437699
  0
VERTEX
  8
0
 10
22.08990450
 20
33.50437699
  0
VERTEX
  8
0
 10
21.38242383
 20
29.05735562
  0
VERTEX
  8
0
 10
22.06716405
 20
29.36056162
  0
VERTEX
  8
0
 10
22.74685084
 20
29.62334015
  0
VERTEX
  8
0
 10
23.42148420
 20
29.84569122
  0
VERTEX
  8
0
 10
24.09106412
 20
30.02761482
  0
VERTEX
  8
0
 10
24.76569748
 20
30.16911096
  0
VERTEX
  8
0
 10
25.43527740
 20
30.27017963
  0
VERTEX
  8
0
 10
26.09980389
 20
30.33082083
  0
VERTEX
  8
0
 10
26.75927694
 20
30.35103456
  0
VERTEX
  8
0
 10
27.30860094
 20
30.34053289
  0
VERTEX
  8
0
 10
27.84481760
 20
30.30902790
  0
VERTEX
  8
0
 10
28.36792692
 20
30.25651957
  0
VERTEX
  8
0
 10
28.87792889
 20
30.18300790
  0
VERTEX
  8
0
 10
29.37482352
 20
30.08849291
  0
VERTEX
  8
0
 10
29.85861080
 20
29.97297458
  0
VERTEX
  8
0
 10
30.32929075
 20
29.83645292
  0
VERTEX
  8
0
 10
30.78686335
 20
29.67892792
  0
VERTEX
  8
0
 10
31.23132860
 20
29.50039960
  0
VERTEX
  8
0
 10
31.66268652
 20
29.30086794
  0
VERTEX
  8
0
 10
32.08093709
 20
29.08033295
  0
VERTEX
  8
0
 10
32.48608032
 20
28.83879462
  0
VERTEX
  8
0
 10
32.87811621
 20
28.57625297
  0
VERTEX
  8
0
 10
33.25704475
 20
28.29270798
  0
VERTEX
  8
0
 10
33.62286595
 20
27.98815966
  0
VERTEX
  8
0
 10
33.97557981
 20
27.66260800
  0
VERTEX
  8
0
 10
34.31092249
 20
27.32110645
  0
VERTEX
  8
0
 10
34.62463016
 20
26.96870843
  0
VERTEX
  8
0
 10
34.91670282
 20
26.60541395
  0
VERTEX
  8
0
 10
35.18714046
 20
26.23122300
  0
VERTEX
  8
0
 10
35.43594310
 20
25.84613558
  0
VERTEX
  8
0
 10
35.66311072
 20
25.45015170
  0
VERTEX
  8
0
 10
35.86864333
 20
25.04327136
  0
VERTEX
  8
0
 10
36.05254093
 20
24.62549454
  0
VERTEX
  8
0
 10
36.21480352
 20
24.19682126
  0
VERTEX
  8
0
 10
36.35543109
 20
23.75725152
  0
VERTEX
  8
0
 10
36.47442365
 20
23.30678531
  0
VERTEX
  8
0
 10
36.57178121
 20
22.84542264
  0
VERTEX
  8
0
 10
36.64750375
 20
22.37316349
  0
VERTEX
  8
0
 10
36.70159128
 20
21.89000789
  0
VERTEX
  8
0
 10
36.73404379
 20
21.39595581
  0
VERTEX
  8
0
 10
36.74486130
 20
20.89100728
  0
VERTEX
  8
0
 10
36.72243669
 20
20.17689397
  0
VERTEX
  8
0
 10
36.65516286
 20
19.46972914
  0
VERTEX
  8
0
 10
36.54303981
 20
18.76951278
  0
VERTEX
  8
0
 10
36.38606753
 20
18.07624488
  0
VERTEX
  8
0
 10
36.18424604
 20
17.38992546
  0
VERTEX
  8
0
 10
35.93757532
 20
16.71055451
  0
VERTEX
  8
0
 10
35.64605538
 20
16.03813203
  0
VERTEX
  8
0
 10
35.30968622
 20
15.37265803
  0
VERTEX
  8
0
 10
34.93699551
 20
14.73024031
  0
VERTEX
  8
0
 10
34.52640405
 20
14.12698670
  0
VERTEX
  8
0
 10
34.07791183
 20
13.56289720
  0
VERTEX
  8
0
 10
33.59151887
 20
13.03797181
  0
VERTEX
  8
0
 10
33.06722516
 20
12.55221052
  0
VERTEX
  8
0
 10
32.50503070
 20
12.10561335
  0
VERTEX
  8
0
 10
31.90493548
 20
11.69818028
  0
VERTEX
  8
0
 10
31.26693952
 20
11.32991132
  0
VERTEX
  8
0
 10
30.59199032
 20
11.00301735
  0
VERTEX
  8
0
 10
29.87092855
 20
10.71970924
  0
VERTEX
  8
0
 10
29.10375419
 20
10.47998700
  0
VERTEX
  8
0
 10
28.29046726
 20
10.28385061
  0
VERTEX
  8
0
 10
27.43106774
 20
10.13130009
  0
VERTEX
  8
0
 10
26.52555565
 20
10.02233544
  0
VERTEX
  8
0
 10
25.57393098
 20
9.95695664
  0
VERTEX
  8
0
 10
24.57619372
 20
9.93516371
  0
VERTEX
  8
0
 10
23.85639531
 20
9.94369138
  0
VERTEX
  8
0
 10
23.16249574
 20
9.96927439
  0
VERTEX
  8
0
 10
22.49449501
 20
10.01191273
  0
VERTEX
  8
0
 10
21.85239313
 20
10.07160641
  0
VERTEX
  8
0
 10
21.23619010
 20
10.14835543
  0
VERTEX
  8
0
 10
20.64588591
 20
10.24215979
  0
VERTEX
  8
0
 10
20.08148057
 20
10.35301948
  0
VERTEX
  8
0
 10
19.54297408
 20
10.48093452
  0
VERTEX
  8
0
 10
19.03194563
 20
10.63064248
  0
VERTEX
  8
0
 10
18.53986755
 20
10.79677410
  0
VERTEX
  8
0
 10
18.06673985
 20
10.97932938
  0
VERTEX
  8
0
 10
17.61256253
 20
11.17830832
  0
VERTEX
  8
0
 10
17.17733558
 20
11.39371092
  0
VERTEX
  8
0
 10
16.76105900
 20
11.62553718
  0
VERTEX
  8
0
 10
16.36373280
 20
11.87378709
  0
VERTEX
  8
0
 10
15.98535698
 20
12.13846066
  0
VERTEX
  8
0
 10
15.63003745
 20
12.42082125
  0
VERTEX
  8
0
 10
15.29177325
 20
12.71202535
  0
VERTEX
  8
0
 10
14.97056439
 20
13.01207296
  0
VERTEX
  8
0
 10
14.66641087
 20
13.32096407
  0
VERTEX
  8
0
 10
14.37931268
 20
13.63869870
  0
VERTEX
  8
0
 10
14.10926984
 20
13.96527683
  0
VERTEX
  8
0
 10
13.85628233
 20
14.30069847
  0
VERTEX
  8
0
 10
13.62035016
 20
14.64496362
  0
VERTEX
  8
0
 10
13.39768325
 20
15.00438907
  0
VERTEX
  8
0
 10
13.18449153
 20
15.38529161
  0
VERTEX
  8
0
 10
12.98077500
 20
15.78767124
  0
VERTEX
  8
0
 10
12.78653365
 20
16.21152797
  0
VERTEX
  8
0
 10
12.60176749
 20
16.65686178
  0
VERTEX
  8
0
 10
12.42647652
 20
17.12367269
  0
VERTEX
  8
0
 10
12.26066074
 20
17.61196069
  0
VERTEX
  8
0
 10
12.10432015
 20
18.12172578
  0
VERTEX
  8
0
 10
20.43237835
 20
19.03134379
  0
VERTEX
  8
0
 10
20.52081344
 20
18.54589835
  0
VERTEX
  8
0
 10
20.63451569
 20
18.09014183
  0
VERTEX
  8
0
 10
20.77348511
 20
17.66407422
  0
VERTEX
  8
0
 10
20.93772169
 20
17.26769554
  0
VERTEX
  8
0
 10
21.12722544
 20
16.90100578
  0
VERTEX
  8
0
 10
21.34199636
 20
16.56400495
  0
VERTEX
  8
0
 10
21.58203445
 20
16.25669303
  0
VERTEX
  8
0
 10
21.84733970
 20
15.97907003
  0
VERTEX
  8
0
 10
22.13191117
 20
15.73745275
  0
VERTEX
  8
0
 10
22.42974790
 20
15.52805110
  0
VERTEX
  8
0
 10
22.74084989
 20
15.35086509
  0
VERTEX
  8
0
 10
23.06521714
 20
15.20589472
  0
VERTEX
  8
0
 10
23.40284966
 20
15.09313999
  0
VERTEX
  8
0
 10
23.75374744
 20
15.01260090
  0
VERTEX
  8
0
 10
24.11791048
 20
14.96427744
  0
VERTEX
  8
0
 10
24.49533879
 20
14.94816962
  0
VERTEX
  8
0
 10
24.91540544
 20
14.96838336
  0
VERTEX
  8
0
 10
25.31652171
 20
15.02902456
  0
VERTEX
  8
0
 10
25.69868761
 20
15.13009322
  0
VERTEX
  8
0
 10
26.06190314
 20
15.27158936
  0
VERTEX
  8
0
 10
26.40616829
 20
15.45351296
  0
VERTEX
  8
0
 10
26.73148306
 20
15.67586403
  0
VERTEX
  8
0
 10
27.03784746
 20
15.93864256
  0
VERTEX
  8
0
 10
27.32526148
 20
16.24184857
  0
VERTEX
  8
0
 10
27.59056673
 20
16.59021963
  0
VERTEX
  8
0
 10
27.82049795
 20
16.97838648
  0
VERTEX
  8
0
 10
28.01505514
 20
17.40634912
  0
VERTEX
  8
0
 10
28.17423829
 20
17.87410755
  0
VERTEX
  8
0
 10
28.29804741
 20
18.38166176
  0
VERTEX
  8
0
 10
28.38648249
 20
18.92901177
  0
VERTEX
  8
0
 10
28.43954354
 20
19.51615756
  0
VERTEX
  8
0
 10
28.45723056
 20
20.14309914
  0
VERTEX
  8
0
 10
28.43954354
 20
20.78299014
  0
VERTEX
  8
0
 10
28.38648249
 20
21.37866360
  0
VERTEX
  8
0
 10
28.29804741
 20
21.93011951
  0
VERTEX
  8
0
 10
28.17423829
 20
22.43735789
  0
VERTEX
  8
0
 10
28.01505514
 20
22.90037872
  0
VERTEX
  8
0
 10
27.82049795
 20
23.31918201
  0
VERTEX
  8
0
 10
27.59056673
 20
23.69376776
  0
VERTEX
  8
0
 10
27.32526148
 20
24.02413597
  0
VERTEX
  8
0
 10
27.03058315
 20
24.31312919
  0
VERTEX
  8
0
 10
26.71253269
 20
24.56358998
  0
VERTEX
  8
0
 10
26.37111009
 20
24.77551835
  0
VERTEX
  8
0
 10
26.00631537
 20
24.94891428
  0
VERTEX
  8
0
 10
25.61814852
 20
25.08377778
  0
VERTEX
  8
0
 10
25.20660954
 20
25.18010886
  0
VERTEX
  8
0
 10
24.77169843
 20
25.23790750
  0
VERTEX
  8
0
 10
24.31341519
 20
25.25717372
  0
VERTEX
  8
0
 10
24.01652598
 20
25.24801437
  0
VERTEX
  8
0
 10
23.72216348
 20
25.22053632
  0
VERTEX
  8
0
 10
23.43032771
 20
25.17473958
  0
VERTEX
  8
0
 10
23.14101864
 20
25.11062415
  0
VERTEX
  8
0
 10
22.85423630
 20
25.02819002
  0
VERTEX
  8
0
 10
22.56998067
 20
24.92743719
  0
VERTEX
  8
0
 10
22.28825176
 20
24.80836566
  0
VERTEX
  8
0
 10
22.00904957
 20
24.67097544
  0
VERTEX
  8
0
 10
21.79933208
 20
24.55411480
  0
VERTEX
  8
0
 10
21.58456116
 20
24.41577706
  0
VERTEX
  8
0
 10
21.13985903
 20
24.07467030
  0
VERTEX
  8
0
 10
20.67494316
 20
23.64765518
  0
VERTEX
  8
0
 10
20.18981355
 20
23.13473170
  0
VERTEX
  8
0
 10
13.17564802
 20
24.14541837
  0
VERTEX
  8
0
 10
15.78321965
 20
40.07384038
  0
SEQEND
  0
ENDSEC
  0
EOF
