  0
SECTION
  2
HEADER
  9
$ACADVER
  1
AC1009
  9
$EXTMIN
 10
11.84154161
 20
10.44050705
 30
0.0
  9
$EXTMAX
 10
36.54272397
 20
40.57918372
 30
0.0
  0
ENDSEC
  0
SECTION
  2
TABLES
  0
TABLE
  2
LAYER
 70
1
 0
LAYER
 2
Default_Layer
 70
0
 62
1
 6
CONTINUOUS
 0
ENDTAB
 0
ENDSEC
  0
SECTION
  2
ENTITIES
  0
POLYLINE
  8
Default_Layer
 66
   1
 39
0.000000
 70
    1
  0
VERTEX
  8
0
 10
36.54272397
 20
10.44050705
  0
VERTEX
  8
0
 10
11.84154161
 20
10.44050705
  0
VERTEX
  8
0
 10
11.97451008
 20
11.34823002
  0
VERTEX
  8
0
 10
12.16117127
 20
12.24205605
  0
VERTEX
  8
0
 10
12.40152520
 20
13.12198514
  0
VERTEX
  8
0
 10
12.69557185
 20
13.98801728
  0
VERTEX
  8
0
 10
13.04331124
 20
14.84015248
  0
VERTEX
  8
0
 10
13.44474335
 20
15.67839075
  0
VERTEX
  8
0
 10
13.89986819
 20
16.50273207
  0
VERTEX
  8
0
 10
14.40868577
 20
17.31317644
  0
VERTEX
  8
0
 10
14.69373099
 20
17.72195183
  0
VERTEX
  8
0
 10
15.00814930
 20
18.13972864
  0
VERTEX
  8
0
 10
15.35194069
 20
18.56650688
  0
VERTEX
  8
0
 10
15.72510516
 20
19.00228655
  0
VERTEX
  8
0
 10
16.12764271
 20
19.44706765
  0
VERTEX
  8
0
 10
16.55955335
 20
19.90085017
  0
VERTEX
  8
0
 10
17.51149386
 20
20.83541951
  0
VERTEX
  8
0
 10
18.58092670
 20
21.80599456
  0
VERTEX
  8
0
 10
19.76785186
 20
22.81257532
  0
VERTEX
  8
0
 10
21.07226936
 20
23.85516179
  0
VERTEX
  8
0
 10
22.49417917
 20
24.93375398
  0
VERTEX
  8
0
 10
23.35800044
 20
25.58564688
  0
VERTEX
  8
0
 10
24.14033510
 20
26.19711232
  0
VERTEX
  8
0
 10
24.84118314
 20
26.76815030
  0
VERTEX
  8
0
 10
25.46054457
 20
27.29876080
  0
VERTEX
  8
0
 10
25.99841938
 20
27.78894384
  0
VERTEX
  8
0
 10
26.45480758
 20
28.23869941
  0
VERTEX
  8
0
 10
26.82970917
 20
28.64802751
  0
VERTEX
  8
0
 10
27.12312415
 20
29.01692815
  0
VERTEX
  8
0
 10
27.36000384
 20
29.36340418
  0
VERTEX
  8
0
 10
27.56529957
 20
29.70545845
  0
VERTEX
  8
0
 10
27.73901134
 20
30.04309096
  0
VERTEX
  8
0
 10
27.88113915
 20
30.37630173
  0
VERTEX
  8
0
 10
27.99168301
 20
30.70509074
  0
VERTEX
  8
0
 10
28.07064291
 20
31.02945799
  0
VERTEX
  8
0
 10
28.11801884
 20
31.34940349
  0
VERTEX
  8
0
 10
28.13381082
 20
31.66492724
  0
VERTEX
  8
0
 10
28.11801884
 20
31.99719048
  0
VERTEX
  8
0
 10
28.07064291
 20
32.31682015
  0
VERTEX
  8
0
 10
27.99168301
 20
32.62381622
  0
VERTEX
  8
0
 10
27.88113915
 20
32.91817872
  0
VERTEX
  8
0
 10
27.73901134
 20
33.19990763
  0
VERTEX
  8
0
 10
27.56529957
 20
33.46900296
  0
VERTEX
  8
0
 10
27.36000384
 20
33.72546470
  0
VERTEX
  8
0
 10
27.12312415
 20
33.96929286
  0
VERTEX
  8
0
 10
26.86729408
 20
34.19669736
  0
VERTEX
  8
0
 10
26.59504036
 20
34.39378126
  0
VERTEX
  8
0
 10
26.30636298
 20
34.56054457
  0
VERTEX
  8
0
 10
26.00126194
 20
34.69698727
  0
VERTEX
  8
0
 10
25.67973724
 20
34.80310937
  0
VERTEX
  8
0
 10
25.34178888
 20
34.87891087
  0
VERTEX
  8
0
 10
24.98741687
 20
34.92439177
  0
VERTEX
  8
0
 10
24.61662119
 20
34.93955207
  0
VERTEX
  8
0
 10
24.23129690
 20
34.92407593
  0
VERTEX
  8
0
 10
23.86365962
 20
34.87764751
  0
VERTEX
  8
0
 10
23.51370936
 20
34.80026681
  0
VERTEX
  8
0
 10
23.18144611
 20
34.69193383
  0
VERTEX
  8
0
 10
22.86686988
 20
34.55264858
  0
VERTEX
  8
0
 10
22.56998067
 20
34.38241104
  0
VERTEX
  8
0
 10
22.29077848
 20
34.18122122
  0
VERTEX
  8
0
 10
22.02926330
 20
33.94907913
  0
VERTEX
  8
0
 10
21.79175193
 20
33.67777292
  0
VERTEX
  8
0
 10
21.57445430
 20
33.35909078
  0
VERTEX
  8
0
 10
21.37737040
 20
32.99303270
  0
VERTEX
  8
0
 10
21.20050023
 20
32.57959868
  0
VERTEX
  8
0
 10
21.04384379
 20
32.11878872
  0
VERTEX
  8
0
 10
20.90740109
 20
31.61060283
  0
VERTEX
  8
0
 10
20.79117212
 20
31.05504100
  0
VERTEX
  8
0
 10
20.69515689
 20
30.45210323
  0
VERTEX
  8
0
 10
12.44795362
 20
31.11915643
  0
VERTEX
  8
0
 10
12.58186960
 20
31.96434317
  0
VERTEX
  8
0
 10
12.74105275
 20
32.76152228
  0
VERTEX
  8
0
 10
12.92550307
 20
33.51069378
  0
VERTEX
  8
0
 10
13.13522055
 20
34.21185766
  0
VERTEX
  8
0
 10
13.37020521
 20
34.86501393
  0
VERTEX
  8
0
 10
13.63045703
 20
35.47016257
  0
VERTEX
  8
0
 10
13.91597601
 20
36.02730360
  0
VERTEX
  8
0
 10
14.22676216
 20
36.53643702
  0
VERTEX
  8
0
 10
14.56660556
 20
37.01209143
  0
VERTEX
  8
0
 10
14.93929627
 20
37.45868861
  0
VERTEX
  8
0
 10
15.34483430
 20
37.87622854
  0
VERTEX
  8
0
 10
15.78321965
 20
38.26471123
  0
VERTEX
  8
0
 10
16.25445231
 20
38.62413668
  0
VERTEX
  8
0
 10
16.75853229
 20
38.95450489
  0
VERTEX
  8
0
 10
17.29545958
 20
39.25581585
  0
VERTEX
  8
0
 10
17.86523420
 20
39.52806958
  0
VERTEX
  8
0
 10
18.48459563
 20
39.77442445
  0
VERTEX
  8
0
 10
19.16017650
 20
39.98793201
  0
VERTEX
  8
0
 10
19.89197682
 20
40.16859226
  0
VERTEX
  8
0
 10
20.67999659
 20
40.31640518
  0
VERTEX
  8
0
 10
21.52423580
 20
40.43137079
  0
VERTEX
  8
0
 10
22.42469446
 20
40.51348909
  0
VERTEX
  8
0
 10
23.38137257
 20
40.56276006
  0
VERTEX
  8
0
 10
24.39427012
 20
40.57918372
  0
VERTEX
  8
0
 10
25.45043770
 20
40.56370758
  0
VERTEX
  8
0
 10
26.44596407
 20
40.51727916
  0
VERTEX
  8
0
 10
27.38084925
 20
40.43989846
  0
VERTEX
  8
0
 10
28.25509322
 20
40.33156548
  0
VERTEX
  8
0
 10
29.06869600
 20
40.19228023
  0
VERTEX
  8
0
 10
29.82165757
 20
40.02204269
  0
VERTEX
  8
0
 10
30.51397794
 20
39.82085287
  0
VERTEX
  8
0
 10
31.14565712
 20
39.58871078
  0
VERTEX
  8
0
 10
31.73564546
 20
39.32435304
  0
VERTEX
  8
0
 10
32.29278649
 20
39.02651631
  0
VERTEX
  8
0
 10
32.81708021
 20
38.69520059
  0
VERTEX
  8
0
 10
33.30852660
 20
38.33040587
  0
VERTEX
  8
0
 10
33.76712568
 20
37.93213215
  0
VERTEX
  8
0
 10
34.19287744
 20
37.50037943
  0
VERTEX
  8
0
 10
34.58578189
 20
37.03514772
  0
VERTEX
  8
0
 10
34.94583902
 20
36.53643702
  0
VERTEX
  8
0
 10
35.27273299
 20
36.01814426
  0
VERTEX
  8
0
 10
35.55604110
 20
35.48405952
  0
VERTEX
  8
0
 10
35.79576334
 20
34.93418280
  0
VERTEX
  8
0
 10
35.99189973
 20
34.36851410
  0
VERTEX
  8
0
 10
36.14445025
 20
33.78705342
  0
VERTEX
  8
0
 10
36.25341490
 20
33.18980076
  0
VERTEX
  8
0
 10
36.31879370
 20
32.57675612
  0
VERTEX
  8
0
 10
36.34058663
 20
31.94791951
  0
VERTEX
  8
0
 10
36.31563530
 20
31.27454951
  0
VERTEX
  8
0
 10
36.24078132
 20
30.60875966
  0
VERTEX
  8
0
 10
36.11602468
 20
29.95054997
  0
VERTEX
  8
0
 10
35.94136539
 20
29.29992042
  0
VERTEX
  8
0
 10
35.71680345
 20
28.65687102
  0
VERTEX
  8
0
 10
35.44233885
 20
28.02140177
  0
VERTEX
  8
0
 10
35.11797159
 20
27.39351268
  0
VERTEX
  8
0
 10
34.74370168
 20
26.77320373
  0
VERTEX
  8
0
 10
34.30879057
 20
26.14910471
  0
VERTEX
  8
0
 10
33.79239285
 20
25.50984538
  0
VERTEX
  8
0
 10
33.19450851
 20
24.85542576
  0
VERTEX
  8
0
 10
32.51513756
 20
24.18584584
  0
VERTEX
  8
0
 10
31.75428000
 20
23.50110562
  0
VERTEX
  8
0
 10
30.91193582
 20
22.80120509
  0
VERTEX
  8
0
 10
29.98810503
 20
22.08614427
  0
VERTEX
  8
0
 10
28.98278763
 20
21.35592315
  0
VERTEX
  8
0
 10
26.90582651
 20
19.89548090
  0
VERTEX
  8
0
 10
26.17434203
 20
19.35855360
  0
VERTEX
  8
0
 10
25.64752160
 20
18.95048886
  0
VERTEX
  8
0
 10
24.74295703
 20
18.15709982
  0
VERTEX
  8
0
 10
23.68678945
 20
17.15146658
  0
VERTEX
  8
0
 10
36.54272397
 20
17.15146658
  0
VERTEX
  8
0
 10
36.54272397
 20
10.44050705
  0
SEQEND
  0
ENDSEC
  0
EOF
