  0
SECTION
  2
HEADER
  9
$ACADVER
  1
AC1009
  9
$EXTMIN
 10
12.20538881
 20
9.93516371
 30
0.0
  9
$EXTMAX
 10
36.68422010
 20
40.57918372
 30
0.0
  0
ENDSEC
  0
SECTION
  2
TABLES
  0
TABLE
  2
LAYER
 70
1
 0
LAYER
 2
Default_Layer
 70
0
 62
1
 6
CONTINUOUS
 0
ENDTAB
 0
ENDSEC
  0
SECTION
  2
ENTITIES
  0
POLYLINE
  8
Default_Layer
 66
   1
 39
0.000000
 70
    1
  0
VERTEX
  8
0
 10
20.43237835
 20
31.50321737
  0
VERTEX
  8
0
 10
12.65009095
 20
32.89796498
  0
VERTEX
  8
0
 10
12.77832182
 20
33.35609030
  0
VERTEX
  8
0
 10
12.92044964
 20
33.80063452
  0
VERTEX
  8
0
 10
13.07647439
 20
34.23159764
  0
VERTEX
  8
0
 10
13.24639609
 20
34.64897965
  0
VERTEX
  8
0
 10
13.43021473
 20
35.05278056
  0
VERTEX
  8
0
 10
13.62793031
 20
35.44300037
  0
VERTEX
  8
0
 10
13.83954283
 20
35.81963908
  0
VERTEX
  8
0
 10
14.06505230
 20
36.18269668
  0
VERTEX
  8
0
 10
14.30445870
 20
36.53217318
  0
VERTEX
  8
0
 10
14.55776205
 20
36.86806858
  0
VERTEX
  8
0
 10
14.82496234
 20
37.19038288
  0
VERTEX
  8
0
 10
15.10605957
 20
37.49911608
  0
VERTEX
  8
0
 10
15.40105375
 20
37.79426817
  0
VERTEX
  8
0
 10
15.70994486
 20
38.07583916
  0
VERTEX
  8
0
 10
16.03273292
 20
38.34382905
  0
VERTEX
  8
0
 10
16.36941792
 20
38.59823784
  0
VERTEX
  8
0
 10
16.72450057
 20
38.83811800
  0
VERTEX
  8
0
 10
17.09742816
 20
39.06252203
  0
VERTEX
  8
0
 10
17.48820069
 20
39.27144991
  0
VERTEX
  8
0
 10
17.89681816
 20
39.46490166
  0
VERTEX
  8
0
 10
18.32328056
 20
39.64287727
  0
VERTEX
  8
0
 10
18.76758790
 20
39.80537673
  0
VERTEX
  8
0
 10
19.22974017
 20
39.95240006
  0
VERTEX
  8
0
 10
19.70973738
 20
40.08394725
  0
VERTEX
  8
0
 10
20.20757953
 20
40.20001830
  0
VERTEX
  8
0
 10
20.72326661
 20
40.30061320
  0
VERTEX
  8
0
 10
21.25679863
 20
40.38573197
  0
VERTEX
  8
0
 10
21.80817559
 20
40.45537460
  0
VERTEX
  8
0
 10
22.37739749
 20
40.50954109
  0
VERTEX
  8
0
 10
22.96446432
 20
40.54823144
  0
VERTEX
  8
0
 10
23.56937608
 20
40.57144565
  0
VERTEX
  8
0
 10
24.19213279
 20
40.57918372
  0
VERTEX
  8
0
 10
24.90474585
 20
40.57073501
  0
VERTEX
  8
0
 10
25.59224967
 20
40.54538888
  0
VERTEX
  8
0
 10
26.25464425
 20
40.50314534
  0
VERTEX
  8
0
 10
26.89192957
 20
40.44400438
  0
VERTEX
  8
0
 10
27.50410565
 20
40.36796600
  0
VERTEX
  8
0
 10
28.09117248
 20
40.27503020
  0
VERTEX
  8
0
 10
28.65313006
 20
40.16519698
  0
VERTEX
  8
0
 10
29.18997840
 20
40.03846635
  0
VERTEX
  8
0
 10
29.70171749
 20
39.89483830
  0
VERTEX
  8
0
 10
30.18834733
 20
39.73431283
  0
VERTEX
  8
0
 10
30.64986793
 20
39.55688994
  0
VERTEX
  8
0
 10
31.08627927
 20
39.36256963
  0
VERTEX
  8
0
 10
31.49758138
 20
39.15135191
  0
VERTEX
  8
0
 10
31.88377423
 20
38.92323677
  0
VERTEX
  8
0
 10
32.24485784
 20
38.67822421
  0
VERTEX
  8
0
 10
32.58083220
 20
38.41631423
  0
VERTEX
  8
0
 10
32.89414507
 20
38.14161275
  0
VERTEX
  8
0
 10
33.18724420
 20
37.85822568
  0
VERTEX
  8
0
 10
33.46012960
 20
37.56615303
  0
VERTEX
  8
0
 10
33.71280127
 20
37.26539478
  0
VERTEX
  8
0
 10
33.94525921
 20
36.95595095
  0
VERTEX
  8
0
 10
34.15750341
 20
36.63782152
  0
VERTEX
  8
0
 10
34.34953388
 20
36.31100651
  0
VERTEX
  8
0
 10
34.52135061
 20
35.97550591
  0
VERTEX
  8
0
 10
34.67295362
 20
35.63131972
  0
VERTEX
  8
0
 10
34.80434288
 20
35.27844795
  0
VERTEX
  8
0
 10
34.91551842
 20
34.91689058
  0
VERTEX
  8
0
 10
35.00648022
 20
34.54664762
  0
VERTEX
  8
0
 10
35.07722829
 20
34.16771908
  0
VERTEX
  8
0
 10
35.12776262
 20
33.78010495
  0
VERTEX
  8
0
 10
35.15808322
 20
33.38380523
  0
VERTEX
  8
0
 10
35.16819009
 20
32.97881992
  0
VERTEX
  8
0
 10
35.15176643
 20
32.50442886
  0
VERTEX
  8
0
 10
35.10249545
 20
32.04140803
  0
VERTEX
  8
0
 10
35.02037716
 20
31.58975742
  0
VERTEX
  8
0
 10
34.90541155
 20
31.14947704
  0
VERTEX
  8
0
 10
34.75759862
 20
30.72056688
  0
VERTEX
  8
0
 10
34.57693838
 20
30.30302694
  0
VERTEX
  8
0
 10
34.36343082
 20
29.89685724
  0
VERTEX
  8
0
 10
34.11707594
 20
29.50205775
  0
VERTEX
  8
0
 10
33.83755791
 20
29.11894434
  0
VERTEX
  8
0
 10
33.52456088
 20
28.74783282
  0
VERTEX
  8
0
 10
33.17808485
 20
28.38872321
  0
VERTEX
  8
0
 10
32.79812983
 20
28.04161551
  0
VERTEX
  8
0
 10
32.38469581
 20
27.70650971
  0
VERTEX
  8
0
 10
31.93778280
 20
27.38340581
  0
VERTEX
  8
0
 10
31.45739079
 20
27.07230382
  0
VERTEX
  8
0
 10
30.94351978
 20
26.77320373
  0
VERTEX
  8
0
 10
31.75206912
 20
26.55211602
  0
VERTEX
  8
0
 10
32.45954980
 20
26.31334129
  0
VERTEX
  8
0
 10
33.06596180
 20
26.05687955
  0
VERTEX
  8
0
 10
33.33126705
 20
25.92201604
  0
VERTEX
  8
0
 10
33.57130514
 20
25.78273079
  0
VERTEX
  8
0
 10
33.92978307
 20
25.54616694
  0
VERTEX
  8
0
 10
34.26741559
 20
25.29128439
  0
VERTEX
  8
0
 10
34.58420269
 20
25.01808315
  0
VERTEX
  8
0
 10
34.88014438
 20
24.72656321
  0
VERTEX
  8
0
 10
35.15524066
 20
24.41672458
  0
VERTEX
  8
0
 10
35.40949153
 20
24.08856725
  0
VERTEX
  8
0
 10
35.64289698
 20
23.74209122
  0
VERTEX
  8
0
 10
35.85545703
 20
23.37729650
  0
VERTEX
  8
0
 10
36.04969837
 20
22.99923651
  0
VERTEX
  8
0
 10
36.21804087
 20
22.60285783
  0
VERTEX
  8
0
 10
36.36048452
 20
22.18816046
  0
VERTEX
  8
0
 10
36.47702933
 20
21.75514438
  0
VERTEX
  8
0
 10
36.56767529
 20
21.30380962
  0
VERTEX
  8
0
 10
36.63242241
 20
20.83415615
  0
VERTEX
  8
0
 10
36.67127068
 20
20.34618399
  0
VERTEX
  8
0
 10
36.68422010
 20
19.83989313
  0
VERTEX
  8
0
 10
36.66305885
 20
19.19621206
  0
VERTEX
  8
0
 10
36.59957509
 20
18.55884777
  0
VERTEX
  8
0
 10
36.49376883
 20
17.92780028
  0
VERTEX
  8
0
 10
36.34564006
 20
17.30306958
  0
VERTEX
  8
0
 10
36.15518879
 20
16.68465567
  0
VERTEX
  8
0
 10
35.92241502
 20
16.07255855
  0
VERTEX
  8
0
 10
35.64731874
 20
15.46677822
  0
VERTEX
  8
0
 10
35.32989995
 20
14.86731469
  0
VERTEX
  8
0
 10
34.97268538
 20
14.29280248
  0
VERTEX
  8
0
 10
34.57820174
 20
13.75176927
  0
VERTEX
  8
0
 10
34.14644903
 20
13.24421506
  0
VERTEX
  8
0
 10
33.67742724
 20
12.77013984
  0
VERTEX
  8
0
 10
33.17113638
 20
12.32954361
  0
VERTEX
  8
0
 10
32.62757646
 20
11.92242639
  0
VERTEX
  8
0
 10
32.04674746
 20
11.54878816
  0
VERTEX
  8
0
 10
31.42864939
 20
11.20862892
  0
VERTEX
  8
0
 10
30.76696545
 20
10.91016051
  0
VERTEX
  8
0
 10
30.05537887
 20
10.65148789
  0
VERTEX
  8
0
 10
29.29388962
 20
10.43261106
  0
VERTEX
  8
0
 10
28.48249773
 20
10.25353001
  0
VERTEX
  8
0
 10
27.62120317
 20
10.11424476
  0
VERTEX
  8
0
 10
26.71000597
 20
10.01475529
  0
VERTEX
  8
0
 10
25.74890611
 20
9.95506160
  0
VERTEX
  8
0
 10
24.73790359
 20
9.93516371
  0
VERTEX
  8
0
 10
23.75374744
 20
9.95000817
  0
VERTEX
  8
0
 10
22.82265234
 20
9.99454155
  0
VERTEX
  8
0
 10
21.94461829
 20
10.06876386
  0
VERTEX
  8
0
 10
21.11964529
 20
10.17267508
  0
VERTEX
  8
0
 10
20.34773334
 20
10.30627522
  0
VERTEX
  8
0
 10
19.62888245
 20
10.46956429
  0
VERTEX
  8
0
 10
18.96309260
 20
10.66254228
  0
VERTEX
  8
0
 10
18.35036380
 20
10.88520919
  0
VERTEX
  8
0
 10
17.78185255
 20
11.13630166
  0
VERTEX
  8
0
 10
17.23860846
 20
11.41455633
  0
VERTEX
  8
0
 10
16.72063154
 20
11.71997321
  0
VERTEX
  8
0
 10
16.22792178
 20
12.05255230
  0
VERTEX
  8
0
 10
15.76047920
 20
12.41229359
  0
VERTEX
  8
0
 10
15.31830377
 20
12.79919708
  0
VERTEX
  8
0
 10
14.90139552
 20
13.21326278
  0
VERTEX
  8
0
 10
14.50975443
 20
13.65449068
  0
VERTEX
  8
0
 10
14.14653891
 20
14.12888174
  0
VERTEX
  8
0
 10
13.80480048
 20
14.63233004
  0
VERTEX
  8
0
 10
13.48453914
 20
15.16483558
  0
VERTEX
  8
0
 10
13.18575489
 20
15.72639836
  0
VERTEX
  8
0
 10
12.90844773
 20
16.31701839
  0
VERTEX
  8
0
 10
12.65261767
 20
16.93669566
  0
VERTEX
  8
0
 10
12.41826469
 20
17.58543017
  0
VERTEX
  8
0
 10
12.20538881
 20
18.26322192
  0
VERTEX
  8
0
 10
20.43237835
 20
19.35476353
  0
VERTEX
  8
0
 10
20.56187258
 20
18.75687919
  0
VERTEX
  8
0
 10
20.70779047
 20
18.20637079
  0
VERTEX
  8
0
 10
20.87013202
 20
17.70323833
  0
VERTEX
  8
0
 10
21.04889723
 20
17.24748181
  0
VERTEX
  8
0
 10
21.24408609
 20
16.83910122
  0
VERTEX
  8
0
 10
21.45569861
 20
16.47809658
  0
VERTEX
  8
0
 10
21.68373479
 20
16.16446787
  0
VERTEX
  8
0
 10
21.92819463
 20
15.89821510
  0
VERTEX
  8
0
 10
22.19444741
 20
15.67554819
  0
VERTEX
  8
0
 10
22.47775551
 20
15.48257020
  0
VERTEX
  8
0
 10
22.77811896
 20
15.31928114
  0
VERTEX
  8
0
 10
23.09553774
 20
15.18568099
  0
VERTEX
  8
0
 10
23.43001187
 20
15.08176977
  0
VERTEX
  8
0
 10
23.78154133
 20
15.00754746
  0
VERTEX
  8
0
 10
24.15012612
 20
14.96301408
  0
VERTEX
  8
0
 10
24.53576626
 20
14.94816962
  0
VERTEX
  8
0
 10
24.94130429
 20
14.96712000
  0
VERTEX
  8
0
 10
25.32915530
 20
15.02397112
  0
VERTEX
  8
0
 10
25.69931929
 20
15.11872300
  0
VERTEX
  8
0
 10
26.05179627
 20
15.25137563
  0
VERTEX
  8
0
 10
26.38658623
 20
15.42192900
  0
VERTEX
  8
0
 10
26.70368918
 20
15.63038313
  0
VERTEX
  8
0
 10
27.00310510
 20
15.87673801
  0
VERTEX
  8
0
 10
27.28483402
 20
16.16099363
  0
VERTEX
  8
0
 10
27.54540167
 20
16.47683322
  0
VERTEX
  8
0
 10
27.77122698
 20
16.81793997
  0
VERTEX
  8
0
 10
27.96230993
 20
17.18431389
  0
VERTEX
  8
0
 10
28.11865052
 20
17.57595498
  0
VERTEX
  8
0
 10
28.24024876
 20
17.99286323
  0
VERTEX
  8
0
 10
28.32710465
 20
18.43503865
  0
VERTEX
  8
0
 10
28.37921818
 20
18.90248124
  0
VERTEX
  8
0
 10
28.39658936
 20
19.39519100
  0
VERTEX
  8
0
 10
28.37984986
 20
19.89611258
  0
VERTEX
  8
0
 10
28.32963137
 20
20.36797692
  0
VERTEX
  8
0
 10
28.24593388
 20
20.81078402
  0
VERTEX
  8
0
 10
28.12875739
 20
21.22453388
  0
VERTEX
  8
0
 10
27.97810191
 20
21.60922649
  0
VERTEX
  8
0
 10
27.79396743
 20
21.96486187
  0
VERTEX
  8
0
 10
27.57635395
 20
22.29144000
  0
VERTEX
  8
0
 10
27.32526148
 20
22.58896089
  0
VERTEX
  8
0
 10
27.05048104
 20
22.85426614
  0
VERTEX
  8
0
 10
26.75169679
 20
23.08419736
  0
VERTEX
  8
0
 10
26.42890874
 20
23.27875455
  0
VERTEX
  8
0
 10
26.08211687
 20
23.43793770
  0
VERTEX
  8
0
 10
25.71132120
 20
23.56174682
  0
VERTEX
  8
0
 10
25.31652171
 20
23.65018190
  0
VERTEX
  8
0
 10
24.89771842
 20
23.70324295
  0
VERTEX
  8
0
 10
24.45491132
 20
23.72092997
  0
VERTEX
  8
0
 10
23.92430082
 20
23.69060937
  0
VERTEX
  8
0
 10
23.30272851
 20
23.59964757
  0
VERTEX
  8
0
 10
22.59019441
 20
23.44804457
  0
VERTEX
  8
0
 10
21.78669850
 20
23.23580036
  0
VERTEX
  8
0
 10
22.21118690
 20
29.11799682
  0
VERTEX
  8
0
 10
22.82265234
 20
29.04219532
  0
VERTEX
  8
0
 10
23.28251478
 20
29.01692815
  0
VERTEX
  8
0
 10
23.67826178
 20
29.03303597
  0
VERTEX
  8
0
 10
24.05695344
 20
29.08135942
  0
VERTEX
  8
0
 10
24.41858977
 20
29.16189852
  0
VERTEX
  8
0
 10
24.76317076
 20
29.27465325
  0
VERTEX
  8
0
 10
25.09069641
 20
29.41962362
  0
VERTEX
  8
0
 10
25.40116672
 20
29.59680963
  0
VERTEX
  8
0
 10
25.69458170
 20
29.80621128
  0
VERTEX
  8
0
 10
25.97094134
 20
30.04782856
  0
VERTEX
  8
0
 10
26.22677140
 20
30.31155461
  0
VERTEX
  8
0
 10
26.44849079
 20
30.58728257
  0
VERTEX
  8
0
 10
26.63609951
 20
30.87501243
  0
VERTEX
  8
0
 10
26.78959754
 20
31.17474420
  0
VERTEX
  8
0
 10
26.90898491
 20
31.48647787
  0
VERTEX
  8
0
 10
26.99426160
 20
31.81021345
  0
VERTEX
  8
0
 10
27.04542761
 20
32.14595093
  0
VERTEX
  8
0
 10
27.06248295
 20
32.49369031
  0
VERTEX
  8
0
 10
27.04984936
 20
32.82374268
  0
VERTEX
  8
0
 10
27.01194861
 20
33.13673971
  0
VERTEX
  8
0
 10
26.94878070
 20
33.43268140
  0
VERTEX
  8
0
 10
26.86034561
 20
33.71156776
  0
VERTEX
  8
0
 10
26.74664336
 20
33.97339878
  0
VERTEX
  8
0
 10
26.60767394
 20
34.21817445
  0
VERTEX
  8
0
 10
26.44343736
 20
34.44589480
  0
VERTEX
  8
0
 10
26.25393361
 20
34.65655980
  0
VERTEX
  8
0
 10
26.04232108
 20
34.84606355
  0
VERTEX
  8
0
 10
25.81175819
 20
35.01030014
  0
VERTEX
  8
0
 10
25.56224491
 20
35.14926955
  0
VERTEX
  8
0
 10
25.29378126
 20
35.26297181
  0
VERTEX
  8
0
 10
25.00636724
 20
35.35140689
  0
VERTEX
  8
0
 10
24.70000284
 20
35.41457481
  0
VERTEX
  8
0
 10
24.37468807
 20
35.45247556
  0
VERTEX
  8
0
 10
24.03042292
 20
35.46510914
  0
VERTEX
  8
0
 10
23.67510339
 20
35.45121220
  0
VERTEX
  8
0
 10
23.33683919
 20
35.40952137
  0
VERTEX
  8
0
 10
23.01563033
 20
35.34003666
  0
VERTEX
  8
0
 10
22.71147681
 20
35.24275807
  0
VERTEX
  8
0
 10
22.42437862
 20
35.11768560
  0
VERTEX
  8
0
 10
22.15433578
 20
34.96481924
  0
VERTEX
  8
0
 10
21.90134827
 20
34.78415899
  0
VERTEX
  8
0
 10
21.66541610
 20
34.57570487
  0
VERTEX
  8
0
 10
21.44717094
 20
34.33756182
  0
VERTEX
  8
0
 10
21.24724449
 20
34.05772794
  0
VERTEX
  8
0
 10
21.06563672
 20
33.73620325
  0
VERTEX
  8
0
 10
20.90234766
 20
33.37298772
  0
VERTEX
  8
0
 10
20.75737729
 20
32.96808137
  0
VERTEX
  8
0
 10
20.63072561
 20
32.52148420
  0
VERTEX
  8
0
 10
20.52239264
 20
32.03319620
  0
VERTEX
  8
0
 10
20.43237835
 20
31.50321737
  0
SEQEND
  0
ENDSEC
  0
EOF
